<svg width="118" height="22" viewBox="0 0 118 22" fill="none" xmlns="http://www.w3.org/2000/svg">
<g clip-path="url(#clip0_1079_1208)">
<path d="M77.9333 0.448486H98.2651V3.74717H90.1997V21.1011H86.1667V3.74717H77.9333V0.448486Z" fill="white"/>
<path d="M44.4953 0.448486V3.74717H28.198V9.05373H41.3042V12.3524H28.198V17.8024H44.4953V21.1011H24.1653V3.74717H24.1636V0.448486H44.4953Z" fill="white"/>
<path d="M54.6475 0.457153H49.3699L68.2731 21.1097H73.5661L64.1133 10.7906L73.551 0.47291L68.2731 0.480079L61.471 7.906L54.6475 0.457153Z" fill="white"/>
<path d="M60.0631 15.2094L57.4202 12.3209L49.3548 21.1255H54.6475L60.0631 15.2094Z" fill="white"/>
<path fill-rule="evenodd" clip-rule="evenodd" d="M24.3066 21.1011L5.37794 0.439941H0.337036V21.0925H4.36976V4.85442L19.2404 21.1011H24.3066Z" fill="white"/>
<path d="M99.1716 20.975C98.8763 20.975 98.625 20.8851 98.4147 20.7052C98.2043 20.5254 98.1003 20.3076 98.103 20.0496C98.1003 19.7987 98.2043 19.5834 98.4147 19.4035C98.625 19.2236 98.8763 19.1337 99.1716 19.1337C99.4557 19.1337 99.7043 19.2236 99.9146 19.4035C100.128 19.5834 100.234 19.7987 100.237 20.0496C100.234 20.22 100.185 20.3762 100.087 20.5159C99.9858 20.6579 99.8575 20.7691 99.696 20.8496C99.5375 20.9324 99.3627 20.975 99.1716 20.975Z" fill="white"/>
<path d="M106.055 12.2747H107.842V18.3266C107.839 18.8828 107.702 19.3585 107.435 19.7585C107.164 20.1585 106.79 20.4637 106.309 20.6791C105.831 20.8921 105.27 21.001 104.634 21.001C104.052 21.001 103.53 20.9087 103.065 20.7289C102.601 20.549 102.232 20.2792 101.961 19.9241C101.688 19.5691 101.554 19.1265 101.554 18.5964H103.344C103.347 18.8283 103.407 19.0295 103.522 19.1975C103.636 19.3656 103.795 19.4934 103.997 19.5833C104.202 19.6733 104.437 19.7182 104.702 19.7182C104.989 19.7182 105.235 19.6661 105.434 19.5596C105.634 19.4555 105.787 19.2993 105.893 19.091C105.997 18.8851 106.052 18.6295 106.055 18.3266V12.2747Z" fill="white"/>
<path d="M115.195 14.6415C115.151 14.2746 114.96 13.9882 114.626 13.7847C114.29 13.5788 113.856 13.477 113.323 13.477C112.949 13.477 112.626 13.5267 112.359 13.6237C112.091 13.7231 111.883 13.8557 111.741 14.0237C111.599 14.1918 111.528 14.3835 111.522 14.5989C111.522 14.7787 111.571 14.9349 111.667 15.0651C111.763 15.1977 111.891 15.3089 112.058 15.3988C112.222 15.4911 112.405 15.5669 112.604 15.6284C112.806 15.6899 113.009 15.742 113.211 15.7846L114.143 15.9858C114.517 16.0615 114.881 16.1633 115.227 16.2935C115.574 16.4213 115.889 16.5846 116.165 16.781C116.441 16.9775 116.659 17.2142 116.82 17.4911C116.982 17.768 117.064 18.0922 117.064 18.4662C117.064 18.9703 116.916 19.4129 116.618 19.7963C116.32 20.1774 115.891 20.4756 115.329 20.691C114.768 20.904 114.091 21.0129 113.293 21.0129C112.522 21.0129 111.85 20.9087 111.285 20.7005C110.716 20.4946 110.273 20.1916 109.954 19.794C109.634 19.3963 109.462 18.9111 109.437 18.3407H111.208C111.233 18.639 111.342 18.8875 111.528 19.0887C111.716 19.2875 111.962 19.4342 112.263 19.5336C112.566 19.6306 112.905 19.6804 113.279 19.6804C113.67 19.6804 114.014 19.6283 114.312 19.5265C114.607 19.4247 114.839 19.2828 115.006 19.0981C115.176 18.9159 115.26 18.7005 115.263 18.4544C115.26 18.2295 115.184 18.0425 115.036 17.8958C114.886 17.7491 114.678 17.626 114.413 17.5266C114.146 17.4272 113.834 17.3372 113.479 17.2591L112.348 17.0082C111.53 16.826 110.883 16.5491 110.41 16.1775C109.935 15.8059 109.7 15.3136 109.7 14.6959C109.7 14.1894 109.858 13.7445 110.178 13.3634C110.495 12.9824 110.929 12.6865 111.479 12.4759C112.031 12.2629 112.654 12.1587 113.347 12.1587C114.053 12.1587 114.67 12.2629 115.203 12.4759C115.736 12.6865 116.154 12.98 116.457 13.3539C116.76 13.7279 116.919 14.1563 116.927 14.6415H115.195Z" fill="white"/>
</g>
<defs>
<clipPath id="clip0_1079_1208">
<rect width="116.727" height="20.8333" fill="white" transform="translate(0.337036 0.439941)"/>
</clipPath>
</defs>
</svg>
