<svg width="409" height="350" viewBox="0 0 409 350" fill="none" xmlns="http://www.w3.org/2000/svg">
<path d="M173.582 82.7842L173.582 82.7843C171.078 87.653 166.097 90.7866 160.595 91.7443C155.094 92.7018 149.204 91.4601 144.939 87.7436C134.921 79.0106 139.056 63.4612 152.545 60.1568C159.911 58.3523 166.783 60.9351 171.004 65.5164C175.219 70.0902 176.761 76.6051 173.582 82.7842ZM126.211 275.559C127.586 276.305 128.706 276.926 129.503 277.384C128.829 277.768 127.939 278.27 126.888 278.861C124.493 280.209 121.27 282.011 117.896 283.893C111.144 287.657 103.798 291.729 101.256 293.1L101.255 293.1L99.749 293.913L88.7162 288.085C82.388 284.741 75.7446 281.229 73.9512 280.278C68.4883 277.382 61.4549 273.685 55.7349 270.696C52.8749 269.202 50.3423 267.883 48.4978 266.93C47.5759 266.453 46.8243 266.067 46.2892 265.795C46.022 265.66 45.8061 265.551 45.6489 265.474C45.5708 265.435 45.5033 265.402 45.4495 265.377L45.4442 265.375C45.412 265.359 45.3263 265.319 45.2461 265.293C45.2658 265.3 45.2752 265.303 45.2677 265.3C45.2584 265.295 45.2231 265.28 45.1493 265.245C45.0452 265.195 44.9 265.124 44.7138 265.032C44.3424 264.846 43.8233 264.583 43.176 264.251C41.8822 263.587 40.0867 262.655 37.958 261.544C33.7012 259.322 28.1182 256.387 22.5654 253.456C17.0125 250.525 11.4912 247.597 7.35783 245.39C5.29079 244.286 3.57265 243.363 2.37168 242.71C2.25748 242.648 2.14809 242.589 2.04363 242.532C2.20459 242.446 2.37752 242.355 2.56211 242.258C3.90907 241.549 5.86057 240.537 8.27241 239.295C13.0953 236.812 19.751 233.416 27.0748 229.708L26.6231 228.816L27.0749 229.708C34.3987 226 41.1162 222.624 46.0389 220.173C48.5006 218.947 50.5115 217.954 51.9245 217.266C52.4159 217.026 52.8333 216.825 53.1711 216.664C53.1973 216.926 53.2224 217.249 53.2459 217.642C53.3446 219.296 53.4047 222.008 53.4492 226.208L53.5649 237.161L53.5713 237.761L54.1037 238.038L64.5407 243.462L65.0019 242.575L64.5408 243.462C70.2819 246.445 80.0667 251.533 86.2856 254.769C92.5059 258.005 105.171 264.564 114.43 269.347L114.43 269.347C119.056 271.735 123.224 273.937 126.211 275.559ZM288.92 156.055L288.273 156.817L288.92 156.055C283.998 151.879 282.41 146.173 283.584 141.039C284.759 135.9 288.723 131.256 295.085 129.283C301.288 127.359 307.611 128.825 312.122 132.225C316.632 135.624 319.26 140.89 318.253 146.581C316.008 159.26 299.257 164.827 288.92 156.055Z" stroke="#DDDDDD" stroke-width="2"/>
<path d="M350.414 237.753L349.885 238.03L278.129 275.728C238.676 296.455 205.747 313.735 204.978 314.115M350.414 237.753L195.299 309.858L187.434 305.819M350.414 237.753L350.42 237.156M350.414 237.753L350.42 237.156M204.978 314.115L204.535 313.218L204.978 314.115L204.978 314.115ZM204.978 314.115L203.606 314.793L203.154 315.016L202.706 314.786L194.842 310.747L187.452 306.953M187.452 306.953L187.919 306.693L187.434 305.819M187.452 306.953L186.977 306.709L187.434 305.819M187.452 306.953L171.387 315.868L156.434 324.166M187.434 305.819L170.902 314.994L155.4 323.596L156.048 323.953C156.049 323.953 156.049 323.953 156.049 323.954C156.175 324.023 156.303 324.094 156.434 324.166M156.434 324.166C162.559 327.529 173.985 333.523 184.042 338.708C189.177 341.355 193.951 343.789 197.475 345.552C199.237 346.434 200.683 347.145 201.703 347.631C202.215 347.875 202.611 348.057 202.884 348.176C202.896 348.181 202.908 348.186 202.919 348.191C203.005 348.147 203.105 348.095 203.222 348.035C203.642 347.816 204.25 347.493 205.034 347.074C206.602 346.235 208.866 345.013 211.726 343.462C217.446 340.36 225.549 335.944 235.236 330.652C254.61 320.069 280.321 305.982 305.993 291.892C331.664 277.803 357.295 263.71 376.508 253.115C386.115 247.818 394.116 243.395 399.715 240.285C402.515 238.729 404.712 237.503 406.21 236.659C406.469 236.513 406.707 236.378 406.924 236.256M156.434 324.166L155.71 324.568L155.566 324.829M155.402 324.739L155.566 324.829M155.402 324.739L408.009 236.789C392.667 245.562 204.219 348.976 202.98 349.272C202.408 349.409 167.634 331.482 155.566 324.829M155.402 324.739L155.71 324.568L155.566 324.829M155.402 324.739L406.924 236.256M406.924 236.256C406.666 236.132 406.38 235.994 406.066 235.845C404.477 235.088 402.202 234.024 399.467 232.756C393.997 230.22 386.695 226.871 379.367 223.532C372.04 220.194 364.69 216.867 359.124 214.375C356.34 213.128 354.006 212.092 352.344 211.368C351.669 211.074 351.109 210.832 350.675 210.65C350.652 210.945 350.638 211.291 350.638 211.664C350.638 212.574 350.685 213.065 350.762 213.346C350.812 213.528 350.848 213.543 350.87 213.552C350.873 213.553 350.875 213.554 350.877 213.555L406.924 236.256ZM350.42 237.156L350.536 226.541C350.588 221.763 350.637 219.137 350.753 217.642C350.812 216.886 350.884 216.5 350.95 216.296C350.969 216.239 350.983 216.207 350.991 216.193M350.42 237.156L350.991 216.193M350.991 216.193C351.157 216.076 351.342 215.943 351.484 215.813L351.487 215.81C351.585 215.721 351.945 215.39 351.941 214.859C351.937 214.281 351.518 213.961 351.406 213.877C351.247 213.757 351.045 213.647 350.878 213.556L350.991 216.193ZM101.523 189.063L101.523 189.063C113.206 186.197 123.236 192.945 124.432 204.272C125.061 210.238 121.467 215.492 116.051 218.486C110.64 221.478 103.592 222.098 97.6241 218.916L97.6241 218.916C84.4001 211.868 86.8739 192.655 101.523 189.063Z" stroke="#DDDDDD" stroke-width="2"/>
<mask id="path-3-inside-1_549_630" fill="white">
<path fill-rule="evenodd" clip-rule="evenodd" d="M127.75 40.2766L53.942 80.5315L53.9859 146.207C54.0106 182.328 54.1511 217.557 54.2973 224.493L54.5648 237.105L65.8719 242.941C72.091 246.15 103.501 262.348 135.672 278.936C167.843 295.523 196.196 310.147 198.679 311.433L203.193 313.772L276.416 275.31L349.638 236.849V157.45V78.0514L275.924 39.0361C235.381 17.5776 202.062 0.020752 201.883 0.020752C201.705 0.020752 168.344 18.136 127.75 40.2766ZM198.731 43.7129V77.5135L195.143 75.9917C190.03 73.8235 179.655 71.2351 176.081 71.2351C175.797 71.2351 176.02 77.9011 176.316 78.2519C176.36 78.303 178.008 78.6241 179.98 78.9647C197.569 81.9991 212.515 93.387 219.168 108.82C221.05 113.186 223.064 113.806 227.463 111.374C249.733 99.0681 277.911 106.185 289.397 127.019C290.057 128.215 290.659 129.256 290.732 129.332C290.806 129.407 292.137 129.007 293.689 128.441C295.242 127.877 296.921 127.415 297.421 127.415C298.265 127.415 298.194 127.17 296.409 123.953C283.846 101.315 254.011 91.7946 229.219 102.512C227.211 103.38 225.526 104.042 225.475 103.982C225.424 103.923 224.437 102.199 223.282 100.149C219.884 94.1192 213.792 87.2957 208.188 83.2427L206.554 82.0615L206.666 46.375L206.776 10.6886L272.662 45.5497C308.9 64.7235 338.684 80.5274 338.85 80.6696C339.017 80.8117 329.753 85.824 318.265 91.8079C295.949 103.431 295.609 103.654 296.317 106.217C297.557 110.714 298.5 110.417 321.913 98.1742L342.244 87.5422V158.354V229.165L339.527 227.813C338.032 227.069 326.73 221.578 314.412 215.611L292.014 204.76L300.278 204.515C310.624 204.206 315.088 203.164 321.142 199.64C341.53 187.775 341.85 160.197 321.742 147.682L319.723 146.425L319.449 147.701C319.298 148.403 318.719 149.984 318.163 151.215L317.15 153.454L319.257 154.914C333.845 165.036 331.453 186.788 314.889 194.628C308.963 197.432 309.01 197.429 280.77 197.435C256.983 197.44 255.625 197.479 255.91 198.134C256.208 198.819 257.418 203.693 257.433 204.266C257.438 204.429 261.379 204.563 266.193 204.563H274.943L306.465 219.854C332.519 232.494 337.846 235.216 337.18 235.548C336.737 235.768 307.274 251.23 271.707 269.908C236.14 288.584 206.932 303.867 206.799 303.867C206.667 303.867 206.559 284.091 206.559 259.921V215.975L205.235 214.77C203.692 213.367 201.436 213.4 199.844 214.847C198.953 215.658 198.947 215.896 198.731 259.572L198.513 303.482L132.192 269.247C95.7159 250.418 65.8281 234.881 65.7752 234.722C65.7224 234.563 71.8504 230.703 79.3926 226.145C95.129 216.636 93.9374 217.595 92.2241 215.821C91.4934 215.063 90.5727 213.866 90.1781 213.163C89.7846 212.458 89.408 211.825 89.3417 211.754C89.2754 211.685 83.0383 215.381 75.4804 219.967L61.7405 228.307V158.686V89.066L68.3721 92.5483C97.1672 107.669 99.4785 108.82 101.067 108.82C104.337 108.82 106.098 105.198 103.816 103.164C103.278 102.684 94.4714 97.9349 84.2457 92.6097C74.0201 87.2844 65.655 82.8336 65.655 82.7191C65.655 82.5544 198.205 9.99217 198.622 9.92774C198.682 9.91955 198.731 25.1221 198.731 43.7129ZM135.231 81.1574C117.469 92.3653 107.221 114.215 110.542 133.799L110.853 135.635L108.367 135.905C77.0498 139.305 63.8922 174.601 86.3884 194.865L89.3012 197.49L90.2601 196.045C90.7874 195.25 91.861 193.997 92.6457 193.261L94.0734 191.921L91.6418 189.6C72.8846 171.711 85.2429 144.405 112.902 142.621C119.708 142.182 120.116 141.661 118.738 135.165C114.886 117.003 122.903 98.1865 139.052 87.488L141.657 85.7626L140.468 83.345C139.812 82.0154 139.098 80.5172 138.881 80.015C138.489 79.112 138.458 79.1212 135.231 81.1574ZM169.625 92.85C167.537 95.2636 169.215 98.5332 172.542 98.5332C175.269 98.5332 176.967 96.3272 176.093 93.9198C175.228 91.5328 171.322 90.8875 169.625 92.85ZM147.723 98.5383C145.362 100.228 146.012 103.59 148.865 104.447C151.553 105.253 153.938 103.633 153.938 100.999C153.938 98.209 150.234 96.7425 147.723 98.5383ZM179.358 107.022C177.436 108.771 178.016 111.853 180.441 112.766C183.102 113.77 185.684 112.17 185.684 109.518C185.684 106.395 181.752 104.843 179.358 107.022ZM141.088 114.539C138.598 116.803 140.275 120.293 143.854 120.293C146.33 120.293 147.414 119.278 147.414 116.958C147.414 113.847 143.496 112.348 141.088 114.539ZM189.111 121.087C188.106 121.621 187.278 123.666 187.597 124.824C188.658 128.67 195.252 128.066 195.252 124.122C195.252 121.355 191.809 119.653 189.111 121.087ZM134.813 130.174C133.625 131.255 133.299 132.749 133.943 134.163C135.485 137.552 141.325 136.439 141.325 132.755C141.325 129.852 137.036 128.152 134.813 130.174ZM198.948 135.409C196.569 136.651 196.289 139.101 198.316 140.945C200.775 143.182 204.583 141.665 204.583 138.449C204.583 135.737 201.503 134.076 198.948 135.409ZM128.354 146.133C126.081 148.334 127.79 151.943 131.105 151.943C134.462 151.943 136.207 148.139 133.796 146.078C132.384 144.871 129.629 144.9 128.354 146.133ZM207.504 150.486C205.28 152.64 207.01 156.296 210.255 156.296C213.545 156.296 215.308 152.449 212.945 150.43C211.533 149.223 208.779 149.251 207.504 150.486ZM271.12 150.541C268.723 152.721 270.432 156.296 273.871 156.296C276.78 156.296 278.611 153.583 277.28 151.243C276.141 149.239 272.951 148.875 271.12 150.541ZM254.552 154.3C252.043 155.261 251.509 158.08 253.494 159.887C256.916 163.001 262.265 158.63 259.072 155.328C257.987 154.207 255.983 153.75 254.552 154.3ZM235.84 159.617C234.252 160.858 234.134 163.359 235.6 164.691C237.065 166.025 239.814 165.917 241.178 164.473C244.335 161.136 239.509 156.745 235.84 159.617ZM279.761 160.351C278.478 161.648 278.232 162.578 278.774 164.074C280.098 167.724 286.144 166.64 286.144 162.752C286.144 159.858 281.848 158.242 279.761 160.351ZM123.215 161.025C121.99 161.494 120.885 162.965 120.885 164.125C120.885 167.546 125.245 169.084 127.631 166.505C130.249 163.675 126.958 159.591 123.215 161.025ZM217.139 164.76C215.552 166.001 215.434 168.502 216.899 169.834C219.247 171.97 223.52 170.273 223.52 167.207C223.52 164.267 219.661 162.786 217.139 164.76ZM198.929 169.927C195.943 172.643 199.005 176.915 203.024 175.639C204.702 175.108 205.254 174.249 205.254 172.175C205.254 169.232 201.255 167.811 198.929 169.927ZM267.284 172.545C265.127 174.089 265.837 177.642 268.461 178.43C271.108 179.225 273.531 177.68 273.531 175.199C273.531 172.172 269.939 170.646 267.284 172.545ZM181.987 173.785C179.346 175.164 179.239 178.644 181.801 179.85C183.485 180.642 184.926 180.576 186.226 179.646C189.788 177.098 185.913 171.738 181.987 173.785ZM116.754 176.93C115.305 177.65 114.797 178.52 114.797 180.278C114.797 183.316 118.751 184.781 121.123 182.623C124.125 179.892 120.444 175.094 116.754 176.93ZM164.53 178.052C162.125 178.935 161.424 182.133 163.267 183.81C164.524 184.953 166.72 185.102 168.219 184.147C171.882 181.814 168.682 176.527 164.53 178.052ZM226.16 179.493C223.02 183.126 228.693 187.493 231.961 183.959C233.244 182.572 233.358 181.659 232.451 180.062C231.312 178.058 227.685 177.73 226.16 179.493ZM145.437 183.378C143.05 185.549 144.753 189.146 148.155 189.121C150.103 189.105 151.119 188.496 151.762 186.957C153.196 183.529 148.31 180.764 145.437 183.378ZM254.594 184.961C251.581 187.702 254.841 192.187 258.771 190.706C262.496 189.303 261.272 183.99 257.224 183.99C256.146 183.99 255.332 184.29 254.594 184.961ZM127.607 187.73C125.696 189.468 126.478 192.637 129.038 193.521C131.714 194.447 134.759 192.052 134.144 189.504C133.517 186.91 129.66 185.862 127.607 187.73ZM124.369 198.134C124.373 198.296 124.664 199.409 125.017 200.607C125.37 201.803 125.661 203.301 125.664 203.935L125.669 205.087L148.573 204.825C161.17 204.681 182.195 204.563 195.297 204.563H219.117L219.423 202.684C219.592 201.65 219.986 200.136 220.301 199.32L220.872 197.837H172.618C146.078 197.837 124.367 197.97 124.369 198.134Z"/>
</mask>
<path fill-rule="evenodd" clip-rule="evenodd" d="M127.75 40.2766L53.942 80.5315L53.9859 146.207C54.0106 182.328 54.1511 217.557 54.2973 224.493L54.5648 237.105L65.8719 242.941C72.091 246.15 103.501 262.348 135.672 278.936C167.843 295.523 196.196 310.147 198.679 311.433L203.193 313.772L276.416 275.31L349.638 236.849V157.45V78.0514L275.924 39.0361C235.381 17.5776 202.062 0.020752 201.883 0.020752C201.705 0.020752 168.344 18.136 127.75 40.2766ZM198.731 43.7129V77.5135L195.143 75.9917C190.03 73.8235 179.655 71.2351 176.081 71.2351C175.797 71.2351 176.02 77.9011 176.316 78.2519C176.36 78.303 178.008 78.6241 179.98 78.9647C197.569 81.9991 212.515 93.387 219.168 108.82C221.05 113.186 223.064 113.806 227.463 111.374C249.733 99.0681 277.911 106.185 289.397 127.019C290.057 128.215 290.659 129.256 290.732 129.332C290.806 129.407 292.137 129.007 293.689 128.441C295.242 127.877 296.921 127.415 297.421 127.415C298.265 127.415 298.194 127.17 296.409 123.953C283.846 101.315 254.011 91.7946 229.219 102.512C227.211 103.38 225.526 104.042 225.475 103.982C225.424 103.923 224.437 102.199 223.282 100.149C219.884 94.1192 213.792 87.2957 208.188 83.2427L206.554 82.0615L206.666 46.375L206.776 10.6886L272.662 45.5497C308.9 64.7235 338.684 80.5274 338.85 80.6696C339.017 80.8117 329.753 85.824 318.265 91.8079C295.949 103.431 295.609 103.654 296.317 106.217C297.557 110.714 298.5 110.417 321.913 98.1742L342.244 87.5422V158.354V229.165L339.527 227.813C338.032 227.069 326.73 221.578 314.412 215.611L292.014 204.76L300.278 204.515C310.624 204.206 315.088 203.164 321.142 199.64C341.53 187.775 341.85 160.197 321.742 147.682L319.723 146.425L319.449 147.701C319.298 148.403 318.719 149.984 318.163 151.215L317.15 153.454L319.257 154.914C333.845 165.036 331.453 186.788 314.889 194.628C308.963 197.432 309.01 197.429 280.77 197.435C256.983 197.44 255.625 197.479 255.91 198.134C256.208 198.819 257.418 203.693 257.433 204.266C257.438 204.429 261.379 204.563 266.193 204.563H274.943L306.465 219.854C332.519 232.494 337.846 235.216 337.18 235.548C336.737 235.768 307.274 251.23 271.707 269.908C236.14 288.584 206.932 303.867 206.799 303.867C206.667 303.867 206.559 284.091 206.559 259.921V215.975L205.235 214.77C203.692 213.367 201.436 213.4 199.844 214.847C198.953 215.658 198.947 215.896 198.731 259.572L198.513 303.482L132.192 269.247C95.7159 250.418 65.8281 234.881 65.7752 234.722C65.7224 234.563 71.8504 230.703 79.3926 226.145C95.129 216.636 93.9374 217.595 92.2241 215.821C91.4934 215.063 90.5727 213.866 90.1781 213.163C89.7846 212.458 89.408 211.825 89.3417 211.754C89.2754 211.685 83.0383 215.381 75.4804 219.967L61.7405 228.307V158.686V89.066L68.3721 92.5483C97.1672 107.669 99.4785 108.82 101.067 108.82C104.337 108.82 106.098 105.198 103.816 103.164C103.278 102.684 94.4714 97.9349 84.2457 92.6097C74.0201 87.2844 65.655 82.8336 65.655 82.7191C65.655 82.5544 198.205 9.99217 198.622 9.92774C198.682 9.91955 198.731 25.1221 198.731 43.7129ZM135.231 81.1574C117.469 92.3653 107.221 114.215 110.542 133.799L110.853 135.635L108.367 135.905C77.0498 139.305 63.8922 174.601 86.3884 194.865L89.3012 197.49L90.2601 196.045C90.7874 195.25 91.861 193.997 92.6457 193.261L94.0734 191.921L91.6418 189.6C72.8846 171.711 85.2429 144.405 112.902 142.621C119.708 142.182 120.116 141.661 118.738 135.165C114.886 117.003 122.903 98.1865 139.052 87.488L141.657 85.7626L140.468 83.345C139.812 82.0154 139.098 80.5172 138.881 80.015C138.489 79.112 138.458 79.1212 135.231 81.1574ZM169.625 92.85C167.537 95.2636 169.215 98.5332 172.542 98.5332C175.269 98.5332 176.967 96.3272 176.093 93.9198C175.228 91.5328 171.322 90.8875 169.625 92.85ZM147.723 98.5383C145.362 100.228 146.012 103.59 148.865 104.447C151.553 105.253 153.938 103.633 153.938 100.999C153.938 98.209 150.234 96.7425 147.723 98.5383ZM179.358 107.022C177.436 108.771 178.016 111.853 180.441 112.766C183.102 113.77 185.684 112.17 185.684 109.518C185.684 106.395 181.752 104.843 179.358 107.022ZM141.088 114.539C138.598 116.803 140.275 120.293 143.854 120.293C146.33 120.293 147.414 119.278 147.414 116.958C147.414 113.847 143.496 112.348 141.088 114.539ZM189.111 121.087C188.106 121.621 187.278 123.666 187.597 124.824C188.658 128.67 195.252 128.066 195.252 124.122C195.252 121.355 191.809 119.653 189.111 121.087ZM134.813 130.174C133.625 131.255 133.299 132.749 133.943 134.163C135.485 137.552 141.325 136.439 141.325 132.755C141.325 129.852 137.036 128.152 134.813 130.174ZM198.948 135.409C196.569 136.651 196.289 139.101 198.316 140.945C200.775 143.182 204.583 141.665 204.583 138.449C204.583 135.737 201.503 134.076 198.948 135.409ZM128.354 146.133C126.081 148.334 127.79 151.943 131.105 151.943C134.462 151.943 136.207 148.139 133.796 146.078C132.384 144.871 129.629 144.9 128.354 146.133ZM207.504 150.486C205.28 152.64 207.01 156.296 210.255 156.296C213.545 156.296 215.308 152.449 212.945 150.43C211.533 149.223 208.779 149.251 207.504 150.486ZM271.12 150.541C268.723 152.721 270.432 156.296 273.871 156.296C276.78 156.296 278.611 153.583 277.28 151.243C276.141 149.239 272.951 148.875 271.12 150.541ZM254.552 154.3C252.043 155.261 251.509 158.08 253.494 159.887C256.916 163.001 262.265 158.63 259.072 155.328C257.987 154.207 255.983 153.75 254.552 154.3ZM235.84 159.617C234.252 160.858 234.134 163.359 235.6 164.691C237.065 166.025 239.814 165.917 241.178 164.473C244.335 161.136 239.509 156.745 235.84 159.617ZM279.761 160.351C278.478 161.648 278.232 162.578 278.774 164.074C280.098 167.724 286.144 166.64 286.144 162.752C286.144 159.858 281.848 158.242 279.761 160.351ZM123.215 161.025C121.99 161.494 120.885 162.965 120.885 164.125C120.885 167.546 125.245 169.084 127.631 166.505C130.249 163.675 126.958 159.591 123.215 161.025ZM217.139 164.76C215.552 166.001 215.434 168.502 216.899 169.834C219.247 171.97 223.52 170.273 223.52 167.207C223.52 164.267 219.661 162.786 217.139 164.76ZM198.929 169.927C195.943 172.643 199.005 176.915 203.024 175.639C204.702 175.108 205.254 174.249 205.254 172.175C205.254 169.232 201.255 167.811 198.929 169.927ZM267.284 172.545C265.127 174.089 265.837 177.642 268.461 178.43C271.108 179.225 273.531 177.68 273.531 175.199C273.531 172.172 269.939 170.646 267.284 172.545ZM181.987 173.785C179.346 175.164 179.239 178.644 181.801 179.85C183.485 180.642 184.926 180.576 186.226 179.646C189.788 177.098 185.913 171.738 181.987 173.785ZM116.754 176.93C115.305 177.65 114.797 178.52 114.797 180.278C114.797 183.316 118.751 184.781 121.123 182.623C124.125 179.892 120.444 175.094 116.754 176.93ZM164.53 178.052C162.125 178.935 161.424 182.133 163.267 183.81C164.524 184.953 166.72 185.102 168.219 184.147C171.882 181.814 168.682 176.527 164.53 178.052ZM226.16 179.493C223.02 183.126 228.693 187.493 231.961 183.959C233.244 182.572 233.358 181.659 232.451 180.062C231.312 178.058 227.685 177.73 226.16 179.493ZM145.437 183.378C143.05 185.549 144.753 189.146 148.155 189.121C150.103 189.105 151.119 188.496 151.762 186.957C153.196 183.529 148.31 180.764 145.437 183.378ZM254.594 184.961C251.581 187.702 254.841 192.187 258.771 190.706C262.496 189.303 261.272 183.99 257.224 183.99C256.146 183.99 255.332 184.29 254.594 184.961ZM127.607 187.73C125.696 189.468 126.478 192.637 129.038 193.521C131.714 194.447 134.759 192.052 134.144 189.504C133.517 186.91 129.66 185.862 127.607 187.73ZM124.369 198.134C124.373 198.296 124.664 199.409 125.017 200.607C125.37 201.803 125.661 203.301 125.664 203.935L125.669 205.087L148.573 204.825C161.17 204.681 182.195 204.563 195.297 204.563H219.117L219.423 202.684C219.592 201.65 219.986 200.136 220.301 199.32L220.872 197.837H172.618C146.078 197.837 124.367 197.97 124.369 198.134Z" stroke="#DDDDDD" stroke-width="4" mask="url(#path-3-inside-1_549_630)"/>
<path d="M316.833 154.317C317.122 153.888 317.185 153.543 316.95 153.33C316.885 153.27 316.583 153.543 316.203 153.987L316.833 154.317ZM316.833 154.317C316.665 154.3 316.456 154.234 316.273 154.066M282.162 143.587C282.15 143.353 282.133 143.134 282.111 142.943L281.95 143.592C282.023 143.598 282.094 143.596 282.162 143.587Z" stroke="#DDDDDD" stroke-width="2"/>
<path d="M125.336 203.237C125.335 203.281 125.335 203.327 125.335 203.375C125.335 203.423 125.335 203.47 125.336 203.515C125.425 203.525 125.518 203.523 125.614 203.506C125.616 203.463 125.617 203.419 125.617 203.375C125.617 203.332 125.616 203.288 125.614 203.245C125.518 203.228 125.425 203.226 125.336 203.237Z" stroke="#DDDDDD" stroke-width="2"/>
</svg>
