<svg width="443" height="653" viewBox="0 0 443 653" fill="none" xmlns="http://www.w3.org/2000/svg">
<path d="M288.608 76.9461L290.491 78.4302L291.461 80.3139L293.344 81.2842L292.887 83.1679L293.344 85.0515V86.9351L294.314 88.8759L295.284 90.7595L294.77 92.6431L295.683 94.5268L295.284 96.4675L296.197 98.3511L297.623 100.235H299.506L301.389 101.205L303.272 102.575L304.242 104.459L304.756 106.342L302.873 107.826L301.389 109.71L299.506 111.594L297.623 113.534L295.284 115.418L293.344 116.388L291.917 118.272L290.034 119.642L288.608 121.526V123.466L287.695 125.35L286.212 127.234L284.329 129.117L282.902 131.058H284.842L289.578 129.631L291.461 129.117L292.431 127.234V125.35L294.314 124.38L295.683 126.32L297.167 128.204L297.623 126.32L296.197 124.38L296.653 122.496L298.137 120.612L300.02 119.642H301.903H303.786L305.726 120.156H307.609L309.492 119.642L311.375 119.185L313.315 118.272H315.198L317.081 118.729L319.933 120.612L318.45 122.496L318.051 124.38L317.537 126.32L316.567 128.204L315.198 130.088L313.315 131.971L311.375 132.485L309.492 131.971L307.609 133.455L305.726 134.369L303.786 133.912L301.903 133.455L300.02 133.912L298.137 134.369H296.197H294.314L292.431 133.455L290.034 132.942L288.094 133.912V135.796L290.491 134.369L292.431 135.339L294.314 135.796L296.197 136.309H298.137L300.02 135.339L301.903 135.796H303.786L305.726 136.309H307.609L309.492 135.339L309.948 137.223L311.831 135.796L312.345 133.912L314.228 133.455L316.111 131.971H318.051L318.45 130.088L319.933 128.204L320.903 126.32L322.273 124.38L324.156 123.466L326.039 124.38L327.979 124.893L329.862 126.32L331.745 126.777L333.628 127.234L335.568 128.718L337.451 129.631L339.847 130.601L342.187 131.572L344.069 131.058L346.01 131.971L347.892 133.455L348.406 135.339L350.289 134.369L352.172 134.825L354.055 136.309L355.481 138.193V140.077L355.025 141.96L355.481 143.901L355.025 146.241V148.125L353.598 150.009L355.481 150.522L356.908 148.639L357.364 146.755L357.878 144.814L359.761 144.301L361.187 146.241L363.584 145.785L364.497 143.901L365.467 141.96L367.35 142.931L369.233 143.901L371.173 145.271L373.056 146.241L374.938 146.755L376.821 148.639L378.761 149.095L380.644 147.668L382.527 148.639L384.41 149.552L386.35 150.979L388.233 150.009L390.116 150.522L391.543 152.406L393.426 151.493L395.309 150.522H397.192L399.588 151.892L401.528 153.376H403.411L405.294 154.746L407.177 156.23L408.603 158.114L410.03 159.998L411.97 160.968L413.853 161.881L414.766 163.822L416.192 165.706L417.105 167.589L419.045 169.473L420.928 170.443L422.811 171.414L424.751 172.783L426.634 173.754L428.517 175.638L429.031 177.521L431.883 177.065L434.223 178.035L436.106 178.492L437.989 179.005L438.959 180.889L439.929 182.773L439.472 184.656V186.597L440.385 188.481L441.355 190.364V192.248L441.812 194.189V196.072V197.956L441.355 199.839L440.842 201.78L441.355 203.664V205.547L440.385 207.431L439.472 209.372V211.255L438.959 213.139L438.502 215.023L437.589 216.963L436.106 218.79L434.736 220.674L432.796 221.187H430.913L431.883 223.071L430.913 224.955L429.487 226.895L428.061 228.779L426.178 230.149L424.295 231.633H422.355L420.928 233.517L419.045 234.887L418.075 236.827L417.105 238.711L416.192 240.652L415.222 242.535L411.97 245.389L410.486 247.33L408.603 248.243L406.264 247.73L404.381 246.816L403.867 248.7V250.584L403.411 252.467L401.927 254.408L400.558 256.292L400.045 258.175L400.558 260.059L402.441 259.146V261.029V262.913L400.558 264.397L399.588 266.281L400.558 268.164V270.048V271.989L401.015 273.872V275.756L400.558 277.64V279.58L399.588 281.464L399.132 283.348L398.162 285.231L397.705 287.172L396.279 289.056L395.822 290.939L395.309 292.823L394.852 294.764V296.647L393.426 298.531L391.999 300.414L391.086 302.355L390.573 304.239V306.122L390.116 308.006V309.947L389.603 311.83L388.69 313.714L386.75 314.684L384.867 317.938L382.984 319.422L382.527 321.306V323.189L380.644 323.646L378.761 325.53L376.821 326.043V327.927L375.395 329.868L374.026 331.751V333.635V335.519V337.459L372.086 339.343L370.203 340.313L368.32 340.713L366.437 342.197V344.081L364.497 345.051L362.614 344.537H360.731H358.848H356.908L355.025 344.081L353.142 344.537L351.259 345.051L349.319 343.567L347.436 344.081L345.553 345.051H343.67L341.73 346.421L339.847 347.905L337.964 348.305L336.081 349.789L335.111 351.672H333.228H330.375L328.492 352.643L326.552 353.556H324.669L322.786 354.013L320.903 354.983L318.963 356.41L317.537 358.294L315.654 359.721L313.714 361.148L312.345 363.031L311.375 364.972L309.492 365.885L307.609 365.372L306.125 367.312V369.196L305.726 371.08L305.212 372.963V374.904L305.726 376.788L306.125 378.671L305.726 381.982V383.865H303.786V385.749V387.69L304.756 389.573L305.726 392.941L304.756 394.825L303.272 396.708L301.389 397.165L297.623 397.679L296.197 399.562L294.77 401.446L292.887 402.93L292.431 404.814L291.461 406.697L290.491 408.581L289.578 410.522L289.064 412.405L288.094 414.289L287.695 416.173L286.725 418.113L284.842 419.997L282.902 421.367L281.476 423.251L279.593 424.678L277.653 426.105L275.77 427.075L274.857 425.191L276.74 424.678L278.623 423.251L280.106 421.367V419.483L281.476 417.6L283.359 416.629L284.329 414.746L284.842 412.405V410.522H282.902L281.019 409.551V411.435L281.476 413.319L281.019 415.259L279.136 416.629L278.623 418.513L276.74 419.997L275.313 421.881L273.43 423.707L272.004 425.591V427.532V429.415V431.299V433.183L271.034 435.123L270.577 437.007L269.664 438.891L268.181 440.774L266.298 441.745L264.415 442.258L262.475 441.745L262.076 439.861L262.988 437.977L264.928 436.037L266.811 434.667L268.694 432.783L269.151 430.842V428.959L267.268 429.415L265.841 431.299L264.415 433.183L263.958 433.696L262.076 431.813L260.592 429.929L259.223 428.045L257.739 426.105L255.856 424.735L253.973 423.251L252.09 422.337L250.15 420.91L248.267 419.483L247.297 417.6L245.928 415.659L244.045 416.173L242.162 415.259L240.678 413.319L238.795 411.435L236.912 410.008L235.942 408.067H234.059L232.119 409.038L230.237 409.551L227.897 410.008L229.324 408.067L230.75 406.184L232.119 404.3L233.603 402.416L234.972 400.533L236.912 398.592L238.339 396.708L240.222 394.825L241.648 392.941L242.561 391L244.501 389.117L246.384 388.146L248.267 387.747L250.15 386.777L251.12 384.893L253.003 383.923L254.886 382.496L256.826 381.525H258.709L260.592 380.155L262.076 378.215V376.331L262.475 374.447V372.564V370.623L261.562 368.739V366.856L260.136 364.972L258.253 364.458L256.37 365.372L254.487 366.456L255.4 364.572V362.689V360.805V358.864V356.981V354.583L256.37 352.7L256.826 350.759L256.37 348.875L254.487 348.419H252.09L250.15 347.962L248.267 346.535L247.811 344.651L247.297 342.768L247.811 340.884L246.898 338.943L246.384 337.06L246.898 335.176L245.928 333.293L244.045 332.322L242.162 331.352L240.222 330.439H238.339L236.456 330.838H234.573H232.633L230.75 331.808L228.867 331.352L226.471 330.439L226.984 328.498L227.384 326.614V324.731L226.471 322.847L227.384 320.906V319.023L226.471 317.139V315.255V313.315L225.501 311.888L227.897 309.034L225.044 306.693L225.501 304.81L226.471 302.926L226.984 300.985L227.384 299.102L228.354 297.218L228.867 295.334L229.78 293.394L230.75 291.51L229.324 289.626L227.897 287.743L226.014 286.259L224.131 284.375L222.191 283.405L221.735 281.521L220.765 279.637L221.278 277.754L222.191 275.813L223.161 273.929L222.648 273.473L205.587 272.559L202.734 262.57H204.617L205.587 260.63V258.746L204.218 256.862L205.13 254.979V253.038L203.704 251.154L201.764 250.184L199.881 249.784L197.998 248.814L196.115 247.844H194.175L192.292 248.3H190.409L188.526 246.93L186.586 245.047H184.703L182.82 244.533L180.937 243.563L178.997 242.193L177.628 240.252H175.745L173.862 239.339L171.922 238.825H170.039H168.156L166.216 237.855L164.79 235.971L162.907 234.601L161.024 233.631L159.084 231.747L157.201 230.263L156.744 228.379L157.201 226.496V224.612L156.744 222.671L155.831 220.788L154.861 218.904L155.831 217.021L156.744 215.08V213.196L155.831 211.313L153.891 211.826H152.008L150.125 212.283H148.243L146.303 212.74L144.42 214.167L142.993 216.05L141.053 217.534L139.17 217.934L137.287 218.904L135.861 220.788L133.978 221.758L132.095 222.272L130.611 224.156L129.242 226.039H127.359L125.476 225.126L123.536 224.612L121.653 225.126L119.77 225.525L118.229 225.925L115.833 225.468L113.95 226.439L112.067 227.352H110.127L108.244 226.895L107.274 224.955L107.788 223.071V215.993L107.274 214.109V212.169L105.448 211.712L103.565 213.139L101.682 214.109L99.7993 215.479L98.3158 217.363L96.4328 217.877L94.5499 218.333H92.6099L91.2405 216.45L89.3575 214.509L87.3604 213.139L85.4775 212.625L83.5945 213.139H81.7116L82.1681 211.255L81.7116 208.858L80.7416 206.917L78.8586 205.034L77.4322 203.15L76.9186 201.266L76.5192 199.383L74.5792 197.956L73.6663 196.072L74.5792 194.189L75.0357 192.248L75.5492 190.364L76.0057 188.481L76.9186 186.597L79.3722 185.627L81.2551 183.743L80.7416 181.859L80.2851 179.919V178.035L81.2551 176.151L82.6245 174.268L83.5945 172.327L84.5075 170.443L85.991 168.56L87.3604 166.676L89.3575 165.706L91.2405 164.735L93.1234 164.221H95.4628H97.3458L99.2858 162.338L101.169 161.425L103.565 160.454H105.448L107.274 161.425L109.214 160.454H111.097L111.611 159.484L113.95 146.241L114.863 134.369V133.455L115.376 131.572V129.631L113.95 127.747L112.524 125.864L111.097 123.98L109.214 123.523V121.64V119.699V117.815V115.932L109.728 114.048H111.611L113.494 112.564L115.376 114.048L117.316 113.078L116.803 111.194L114.863 109.196L112.98 108.283L111.097 108.797L110.641 102.575H112.524H114.863H116.803H118.686H120.569H122.452L124.905 103.089L126.788 101.605V99.7211L129.128 100.235L131.011 99.2644L132.894 98.8078H134.834L135.747 99.7211L136.717 101.605L137.687 103.545L139.57 105.429L140.996 107.313L142.936 108.283L143.335 110.167L145.275 110.68L147.158 111.594L149.041 112.564H150.924L152.864 111.194L153.777 109.196L155.66 110.68L157.144 108.283L158.114 106.342L159.997 104.972L161.88 103.545L163.763 102.575L164.733 100.691L166.616 98.8078L168.499 98.3511L170.439 97.8374L172.322 96.8671L171.808 94.9834L169.925 94.5268H168.042H166.102L164.219 93.6135V91.6728L164.733 89.7891L163.763 87.9055V86.0219L163.249 83.6245L161.88 81.6838L159.997 80.7705L158.114 79.3435V77.4599H159.997L161.88 77.9165L163.763 77.4599L165.703 78.4302L167.586 78.8298L169.469 79.8001L171.351 80.3139L173.292 81.2842L175.174 81.6838L177.057 80.3139L178.427 78.4302H180.367H182.25L184.133 77.4599H186.016L187.956 76.9461L189.839 76.0329L191.722 74.6059H193.605L196.058 73.1789L198.398 72.2085L199.824 70.3249L198.968 68.327L200.794 67.4708L202.677 66.5005H204.56L206.443 67.4708V70.8386L204.56 72.2085V74.0921L205.986 76.0329L207.413 77.9165L207.869 79.8001L207.413 81.6838L206.899 83.6245L206.443 85.5081V87.3918V89.2754V91.2161V93.0998L207.413 94.9834L207.869 96.8671L208.383 98.8078L209.296 100.691L211.236 101.605L213.119 102.118L215.458 103.545L217.398 104.002H219.281L221.221 103.089L223.104 102.118L224.987 101.262H228.297H230.179L232.062 99.2644L234.002 98.3511H235.885L238.282 97.8374L238.738 98.3511H240.621L242.504 99.7211L244.901 99.2644L246.841 97.8374V95.9538L244.901 94.5268L245.357 92.6431L247.24 93.0998L249.18 93.6135L251.063 93.0998L252.946 92.1294H254.829L255.799 94.0131H257.682L258.709 95.5542L260.592 96.0109L262.988 96.9241L264.928 96.0109L266.811 94.5839L268.694 95.0405L270.577 94.5839L272.517 95.5542L274.4 96.0109L276.283 94.5839L281.019 88.4192L281.989 86.5356L283.359 84.5949L284.842 82.2546L286.212 80.3709L287.695 78.4873L287.182 76.6037L288.608 76.9461Z" stroke="#DDDDDD" stroke-width="2" stroke-miterlimit="10"/>
<path d="M88.8439 10.562L90.7269 9.59164L92.6098 8.62129H94.5499L96.4328 7.25136L97.3458 5.36772L96.9463 3.427L95.0063 2L93.1234 2.51372L91.2404 3.427L88.8439 5.36772L87.3604 7.25136L85.991 9.135L84.108 9.59164L82.168 10.562L80.2851 11.4753L78.4592 13.4731L76.5192 14.3864H74.5792H72.6962H70.2997L68.4168 14.843L66.9903 16.7266L65.5638 18.6103L63.6809 20.551L62.2544 18.6103L60.3714 18.1537L58.4885 19.0669L57.0049 20.9506L56.092 22.8913L55.122 24.7749L54.152 26.6586L53.7526 28.5422V30.4829V32.3666H51.8126L49.9296 32.8803L49.0167 34.7639L48.0467 36.6476L46.5631 38.5883L44.6802 39.5016L42.7972 40.9286L42.3407 42.8122L43.3108 44.6959V46.6366V48.5773H41.4278V46.6366L39.9443 44.6959L38.5748 42.8122H36.6348L37.0913 44.6959V46.6366L36.6348 48.5773L35.7219 50.461L34.7519 52.3446L32.8689 51.8309L32.3554 53.7145V55.6552L33.8389 57.5389L34.2384 59.4225L36.1784 59.8792L36.6348 61.7628L36.1784 64.1602L36.6348 66.1009L37.6048 67.9845L36.6348 69.8682L35.7219 71.7518L36.6348 73.6925V75.5762V77.4598V79.3435V81.2842L36.1784 83.1678V85.0515L37.0913 86.9351H38.9743V88.8758L37.0913 90.2457L35.7219 92.1294L34.2384 94.013L33.8389 95.9537L33.3254 97.8374L32.8689 99.721L30.986 100.235H29.046L27.163 101.262L25.2801 100.691L24.8236 102.575V104.459L25.7936 106.342L26.2501 108.283L24.3101 109.196H22.4271L21.9136 111.194L23.3971 114.448L21.9136 111.594L25.2801 114.961L27.163 116.845L29.046 117.302L30.986 117.815L32.8689 118.272L34.7519 117.815L36.6348 119.185L38.5748 121.126L40.4578 122.039H42.3407L44.2237 123.01L46.1637 122.039L46.5631 120.156L48.5031 121.126L50.3861 122.039L52.269 122.553L54.152 123.98L56.092 124.437H58.945L60.8279 124.893L62.7109 125.864L64.5938 127.291L66.5338 128.261L67.4468 130.088L68.9303 131.971L70.8133 132.485L72.6962 133.455L74.5792 133.912L75.5492 135.796L77.4321 137.223L79.3721 138.193L78.8586 140.077L79.7715 141.96L78.8586 143.901L80.7416 144.301L81.7116 146.241L84.108 144.814L85.991 145.271L87.8739 144.301L89.7569 143.387L91.6969 142.417L93.5799 141.96L95.4628 142.417L97.3458 144.301L99.2858 143.387L100.712 141.504H102.595L104.535 141.96H106.361L108.244 142.931L108.758 144.814L111.097 145.271L102.139 156.63L105.905 154.746L107.788 153.833L108.758 154.746V156.63L111.611 159.484L113.95 146.241L114.863 134.369V133.455L115.376 131.572V129.631L113.95 127.747L112.523 125.864L111.097 123.98L109.214 123.523V121.64V119.699V117.815V115.932L109.728 114.048H111.611L113.494 112.564L115.376 114.048L117.316 113.078L116.803 111.194L114.863 109.196L112.98 108.283L111.097 108.797L110.641 102.575H112.523H114.863H116.803H118.686H120.569H122.452L124.905 103.089L126.788 101.605V99.721L129.128 100.235L131.011 99.2644L132.894 98.8077H134.834V96.867L133.864 94.9834L132.494 93.0997L131.011 91.2161L132.494 89.2754L133.864 87.3917L134.377 85.5081L133.864 83.6245L132.494 81.6837L131.524 79.8001L130.554 77.9165L130.041 76.0328V74.0921V72.2085V70.3248V68.4412L131.011 66.5004L132.894 64.6168L132.494 62.7332L132.894 60.8495L132.494 58.9088L130.554 58.5092L128.671 59.4225L126.788 59.8792H123.935L122.052 59.4225L120.112 58.9088L118.229 59.4225L116.346 60.3929H114.463L112.98 58.5092L111.097 57.0252L109.214 55.1415L107.274 54.2282L105.448 53.7145L103.565 52.8012L101.682 52.3446L99.7993 51.8309H97.3458H95.4628L93.5799 51.3742L91.6969 51.8309L89.7569 52.8012H87.8739L86.961 50.9176L85.021 49.4906L84.5074 47.607L85.021 45.7233V43.7255L84.5074 41.8419L83.5945 39.9582L82.168 38.0746L81.7116 36.1339L80.7416 34.2502V32.3666H78.8586L77.4321 34.2502H75.5492L76.9186 31.9099L78.4592 30.0263L78.8586 28.1427L78.4592 25.7453L78.8586 23.8046L79.7715 21.9209L80.7416 20.0373L81.7116 18.1537L83.5945 16.27L84.5074 14.3864L86.4475 13.4731L88.3875 12.4456L88.8439 10.562Z" stroke="#DDDDDD" stroke-width="2" stroke-miterlimit="10"/>
<path d="M134.777 98.6936V96.81L133.807 94.9263L132.437 93.0427L130.954 91.102L132.437 89.2183L133.807 87.3347L134.32 85.451L133.807 83.5103L132.437 81.6267L131.467 79.743L130.497 77.8594L129.984 75.9187V74.035V72.1514V70.2677V68.327L130.954 66.4434L132.837 64.5597L132.437 62.6761L132.837 60.7354L132.437 58.8517L130.497 58.3951L128.614 59.3655L126.731 59.8221H123.878L121.995 59.3655L120.055 58.8517L118.172 59.3655L116.289 60.3358H114.407L112.923 58.3951L111.04 56.9681L109.157 55.0845L107.217 54.1712L105.391 53.6575L103.508 52.7442L101.625 52.2875L99.6853 51.7738H97.2888H95.4058L93.5229 51.3172L91.6399 51.7738L89.6999 52.7442H87.817L86.847 50.8605L84.964 49.4335L84.4505 47.5499L84.964 45.6663V43.6685L84.4505 41.7848L83.5375 39.9012L82.1111 38.0175L81.5975 36.0768L80.6846 34.1932V32.3095H78.8016L77.3751 34.1932H75.4922L76.8616 31.8529L78.4593 29.9692L78.8016 28.0856L78.4593 25.6312L78.8016 23.7475L79.7146 21.8639L80.6846 19.9802L81.5975 18.0395L83.5375 16.213L84.4505 14.3293L86.3905 13.359L88.3305 12.3886L88.787 10.4479L90.6699 9.53459L92.5529 8.56423H94.4358L94.0935 9.59167L92.2105 10.562L90.727 12.4457L89.3576 14.3864L90.727 16.27L91.697 18.1537L92.6099 20.0373V21.921L90.727 23.8046L89.3576 25.7453L88.3875 27.629L89.757 29.5126L90.727 31.3962L91.697 33.337L93.5799 34.2502L95.4629 33.337L97.3458 32.3666L98.3158 30.483V28.5422L97.8594 26.6586L96.9464 24.775L95.0064 23.8046V21.921L94.5499 20.0373V18.1537L95.0064 16.27L96.9464 15.8134L98.8294 13.8727L100.712 13.4731L102.595 12.9594L104.535 12.4457H106.361L107.788 10.562L109.214 8.62131L107.274 7.70803L105.448 5.76731L107.274 3.88367L109.214 4.39739L109.728 6.28103L111.097 8.22175L112.067 10.1054L113.95 11.0187L115.833 10.562H117.716L119.656 11.4753L121.539 12.4457L123.422 13.8727L124.905 15.8134L126.788 17.697L128.671 18.1537L130.554 18.6103H132.494H134.377H136.26H138.143L140.083 17.697L141.966 18.1537H143.849H145.732L147.672 19.5807L149.555 20.0373L151.438 20.551L153.321 20.9506H155.261L157.144 21.4643H159.027L160.91 20.9506H162.85L164.733 19.067H166.616H168.499L166.616 17.697L164.733 17.2404L166.616 16.27H168.499H170.439L172.322 16.7267L174.204 16.27L176.087 15.8134L179.91 15.3568H181.793H183.676L185.616 16.27L187.499 15.8134L186.016 17.697L184.133 18.6103L182.25 17.697L180.367 17.2404H178.427L179.397 19.067L180.88 20.9506L182.763 22.4347H184.646L186.529 23.405L188.469 23.8046L190.352 24.3183L192.235 23.8046L194.118 24.775L196.058 25.7453L197.941 26.202L198.968 28.1427L199.311 30.0263V31.91L197.428 33.337L196.971 35.2206H198.968L200.794 34.764H202.677L204.56 34.2502L206.443 34.764L207.413 36.6476V38.5883L205.53 40.472L203.647 41.3852L201.707 41.8419L199.824 43.7255V45.7233V47.607L201.707 48.9769L202.677 50.9176L200.794 52.3446H198.968H196.971H195.088L193.605 54.2283V56.0548L193.205 57.9955L192.692 59.8792V61.7628L194.575 63.2469L196.458 64.6168L197.941 66.5005L198.968 68.4412L199.824 70.3248L198.398 72.2085L196.058 73.1788L193.605 74.6058H191.722L189.839 76.0328L187.956 76.9461L186.016 77.4598H184.133L182.25 78.4302H180.367H178.427L177.057 80.3138L175.174 81.6838L173.292 81.2842L171.352 80.3138L169.469 79.8001L167.586 78.8298L165.703 78.4302L163.763 77.4598L161.88 77.9165L159.997 77.4598H158.114V79.3435L159.997 80.7705L161.88 81.6838L163.249 83.6245L163.763 86.0218V87.9055L164.733 89.7891L164.219 91.6728V93.6135L166.102 94.5268H168.042H169.925L171.808 94.9834L172.322 96.867L170.439 97.8374L168.499 98.3511L166.616 98.8078L164.733 100.691L163.763 102.575L161.88 103.545L159.997 104.972L158.114 106.342L157.144 108.283L155.66 110.68L153.777 109.196L152.864 111.194L150.924 112.564H149.041L147.158 111.594L145.276 110.68L143.336 110.167L142.936 108.283L140.996 107.313L139.57 105.429L137.687 103.545L136.717 101.605L135.747 99.7211L134.777 98.6936Z" stroke="#DDDDDD" stroke-width="2" stroke-miterlimit="10"/>
<path d="M21.9136 111.594L23.3972 114.448L21.4572 115.418H19.5742L17.1777 115.932L15.2948 116.845L13.4118 118.786L12.9554 120.669L11.9853 122.553L12.9554 124.437L12.4418 126.377L11.0724 128.261L9.58887 130.088L9.13239 131.971V133.912L7.70591 135.796L5.82296 137.679L5.36649 139.563L6.27944 141.504L5.82296 143.387V145.271L6.27944 147.155L5.36649 149.095V150.979L7.24944 151.892L9.13239 152.863L11.4718 151.892L13.8683 151.493L15.8083 150.979L17.6913 150.522L18.1477 152.406L17.1777 154.29L16.2077 156.23L14.3248 157.144L12.4418 158.571L11.0724 160.454L9.13239 162.338L8.21945 164.222L6.27944 165.706L4.39648 167.589L2.97001 169.473L2.51353 171.414L2 173.297L2.51353 175.181L4.39648 176.151H6.73591L8.61886 175.638L9.58887 173.754L11.4718 171.813L13.4118 170.9L15.2948 170.443L17.1777 171.813H19.0607L20.5442 173.754L22.4272 174.268L24.3101 174.667L25.2801 172.784L26.7066 170.9L27.6766 169.016L28.6466 167.076L29.046 164.735L29.5596 162.852L30.5296 160.968L30.986 159.084L32.869 160.454L33.839 158.571V156.63L35.2084 154.746L37.0914 153.833L39.4879 152.863L41.8273 151.892L43.7673 150.979L46.1638 150.009L48.5032 148.639L50.3861 147.155L52.2691 145.271L53.7526 143.387L55.1221 141.504L55.6356 139.563L56.6056 137.679L57.005 135.796L57.5185 133.912V131.971L59.4015 131.572L57.975 128.718L56.0921 127.291L57.975 126.377L58.8309 124.38L56.0921 124.437L54.1521 123.98L52.2691 122.553L50.3861 122.039L48.5032 121.126L46.5632 120.156L46.1638 122.039L44.2238 123.01L42.3408 122.039H40.4579L38.5749 121.126L36.6349 119.185L34.7519 117.815L32.869 118.272L30.986 117.815L29.046 117.302L27.1631 116.845L25.2801 114.961L21.9136 111.594Z" stroke="#DDDDDD" stroke-width="2" stroke-miterlimit="10"/>
<path d="M111.554 159.427L108.701 156.573V154.689L107.731 153.776L105.848 154.689L102.025 156.573L111.04 145.214L108.701 144.757L108.187 142.874L106.304 141.903H104.478L102.538 141.389H100.655L99.2289 143.33L97.2889 144.243L95.4059 142.36L93.523 141.903L91.64 142.36L89.7 143.33L87.8171 144.243L85.9341 145.214L84.0511 144.757L81.5976 146.184L80.6847 144.243L78.8017 143.844L79.7147 141.903L78.8017 140.02L79.2582 138.136L77.3752 137.166L75.4923 135.739L74.5223 133.798L72.6393 133.398L70.7564 132.428L68.8734 131.914L67.3899 130.031L66.4199 128.204L64.5369 127.234L62.654 125.807L60.771 124.836L58.831 124.38L57.9181 126.32L56.0351 127.234L57.9181 128.661L59.3445 131.458L57.4616 131.914V133.798L56.9481 135.739L56.4916 137.622L55.5786 139.506L55.0651 141.389L53.6957 143.33L52.2121 145.214L50.3292 147.097L48.4462 148.582L46.1068 149.951L43.6533 150.922L41.7703 151.835L39.4309 152.805L37.0344 153.776L35.1515 154.689L33.725 156.573V158.513L32.812 160.397L30.9291 158.97L30.4726 160.911L29.5026 162.794L28.9891 164.678L28.5897 167.018L27.6197 168.902L26.6497 170.843L25.2232 172.726L24.2532 174.61L22.3702 174.153L20.4873 173.697L19.0037 171.756H17.1208L15.2378 170.386L13.2978 170.843L11.4149 171.756L9.53191 173.697L8.56191 175.58L6.67895 176.094H4.33953L3.88306 176.608V178.491L4.85306 180.375H6.73601L7.70602 182.259L6.27954 184.656L4.39659 185.626L4.85306 187.51L6.73601 188.48L8.61897 188.937L11.4719 189.451L13.4119 190.364L15.2949 191.335L17.1778 193.218L18.6614 195.102L19.5743 197.043L20.5443 198.926L21.0008 200.81L22.9408 202.18L24.8238 203.664L28.1332 206.004L28.6467 207.888L29.0461 209.771L29.5597 211.712L30.5297 213.596L31.4997 215.479L32.8691 217.363L33.8391 219.304L35.2085 221.187L36.1785 223.585L36.635 225.468L38.0615 227.352L38.9744 229.293L39.488 231.176L40.9144 233.06L42.7974 234.487L44.6803 236.371L45.6503 238.254L46.1639 240.195L47.5333 242.136L49.0168 244.019L50.8998 245.903L51.8127 247.787L52.7827 250.127L54.1522 252.068H56.0922L57.0051 253.951L56.0922 255.835L55.1222 257.719V259.659L56.6057 261.543L57.0051 263.427L58.9451 264.911L60.8281 265.824L62.711 266.794L64.594 268.678L66.534 269.648L67.9605 271.532L69.3299 273.416L71.2699 274.386L73.1529 274.843L75.0358 275.299L76.9188 276.27L78.8588 277.183L80.7417 278.096L82.6247 279.067L84.5076 279.98H86.4476L88.3876 281.464L90.2706 282.434L92.2106 282.834H94.0936L95.9765 283.804L97.8595 284.775L99.7995 285.688L101.682 287.172L103.565 289.056L104.535 290.939L106.361 292.366L108.244 293.279L109.728 295.163L111.611 296.647L113.494 297.618L115.377 297.104L117.317 296.647L119.2 295.677L120.113 293.793L119.656 291.91L121.083 290.026L120.569 288.085L119.2 286.202L118.686 284.318L119.656 282.434L121.539 281.464L123.422 280.494L125.305 279.58L124.905 277.64L124.392 275.756L122.452 276.27L120.569 274.843L118.686 274.386L116.803 273.416L114.863 272.502L116.803 271.989L118.686 271.532L117.317 269.648L117.716 267.251L119.656 268.164L120.569 269.648L121.539 267.708L122.452 266.281L122.053 264.397L122.965 258.689L125.305 256.349L124.392 250.641V247.33L126.788 239.225L118.23 225.925L115.833 225.468L113.95 226.439L112.067 227.352H110.127L108.244 226.895L107.274 224.955L107.788 223.071V215.993L107.274 214.109V212.169L105.448 211.712L103.565 213.139L101.682 214.109L99.7995 215.479L98.3159 217.363L96.433 217.877L94.55 218.333H92.61L91.2406 216.45L89.3576 214.509L87.3606 213.139L85.4776 212.625L83.5947 213.139H81.7117L82.1682 211.255L81.7117 208.858L80.7417 206.917L78.8588 205.034L77.4323 203.15L76.9188 201.266L76.5193 199.383L74.5793 197.956L73.6664 196.072L74.5793 194.189L75.0358 192.248L75.5493 190.364L76.0058 188.48L76.9188 186.597L79.3723 185.626L81.2553 183.743L80.7417 181.859L80.2852 179.918V178.035L81.2553 176.151L82.6247 174.268L83.5947 172.327L84.5076 170.443L85.9912 168.56L87.3606 166.676L89.3576 165.706L91.2406 164.735L93.1235 164.221H95.463H97.3459L99.2859 162.338L101.169 161.425L103.565 160.454H105.448L107.274 161.425L109.214 160.454H111.097L111.554 159.427Z" stroke="#DDDDDD" stroke-width="2" stroke-miterlimit="10"/>
<path d="M207.869 35.7344L209.752 37.1043H211.635H213.575L215.458 38.5884V40.472L216.371 42.3557L218.368 44.2393L220.251 46.18L220.708 48.0637V49.9473L220.251 51.8309L219.738 53.7146V55.6553L221.221 53.7146L222.134 51.8309H224.074L225.957 52.8013L227.84 53.7146L229.209 55.6553L230.693 57.5389L232.576 58.5093L233.032 60.3929L233.546 62.2766L233.032 64.1602V66.1009L232.576 67.9846L230.693 69.3545L227.84 69.8682L227.326 71.7519L226.87 73.6926L225.957 75.5762V77.4599L226.414 79.3435L226.87 81.2842L228.296 83.1679L229.209 85.0515L231.149 86.4214L233.032 88.3622L233.546 90.2458L234.459 92.1295L235.885 94.0131L236.798 95.9538L238.282 97.8375L235.885 98.3512H234.002L232.062 99.2645L230.179 101.262H228.296H224.987L223.104 102.118L221.221 103.089L219.281 104.002H217.398L215.458 103.545L213.119 102.118L211.236 101.605L209.296 100.691L208.383 98.8078L207.869 96.8671L207.413 94.9835L206.443 93.0998V91.2162V89.2754V87.3918V85.5082L206.899 83.6245L207.413 81.6838L207.869 79.8002L207.413 77.9165L205.986 76.0329L204.56 74.0922V72.2085L206.443 70.8386V67.4709L204.56 66.5005H202.677L200.794 67.4709L198.968 68.3271L197.884 66.4434L196.4 64.5598L194.517 63.1899L192.635 61.7058V59.8221L193.148 57.9385L193.547 55.9978V54.1712L195.031 52.2876H196.914H198.968H200.737L202.62 50.8606L201.65 48.9199L199.767 47.5499V45.6663V43.6685L201.65 41.7849L203.533 41.3282L205.473 40.4149L207.356 38.4742V36.5906L207.869 35.7344Z" stroke="#DDDDDD" stroke-width="2" stroke-miterlimit="10"/>
<path d="M233.489 62.2195L232.975 64.1031V65.9868L232.519 67.9275L230.636 69.2974L227.783 69.8111L227.27 71.6948L226.813 73.5784L225.9 75.5191V77.4028L226.3 79.2864L226.813 81.1701L228.24 83.1108L229.153 84.9944L231.093 86.3643L232.975 88.3051L233.489 90.1887L234.402 92.0723L235.828 93.956L236.741 95.8967L238.225 97.7803L238.738 98.3511H240.621L242.504 99.7211L244.901 99.2644L246.841 97.8374V95.9538L244.901 94.5268L245.357 92.6431L247.24 93.0998L249.18 93.6135L251.063 93.0998L252.946 92.1294H254.829L255.799 94.0131H257.682L259.565 92.6431L260.079 90.7595L261.049 88.8759L262.019 86.9351L262.418 85.0515L263.388 83.1678V81.2842L261.505 79.3435L260.535 77.4599V75.5762L260.079 73.6926L259.166 71.7518V69.8682L259.565 67.9846L261.505 67.0142L262.932 65.1306L263.902 63.2469L264.814 61.3062L262.932 60.8496H261.049L259.166 60.3929L257.226 59.8792L255.343 59.4226L253.46 58.5093L251.577 59.4226L249.637 59.8792H247.754L245.871 60.3929H243.988L242.048 59.4226H240.165L238.282 59.8792L236.399 59.4226L234.459 59.8792L234.003 61.7628L233.489 62.2195Z" stroke="#DDDDDD" stroke-width="2" stroke-miterlimit="10"/>
<path d="M258.709 95.5541L260.592 96.0108L262.989 96.924L264.929 96.0108L266.812 94.5838L268.695 95.0404L270.577 94.5838L272.517 95.5541L274.4 96.0108L276.283 94.5838L281.019 88.4191L281.989 86.5355L283.359 84.5948L284.842 82.2545L286.212 80.3708L287.695 78.4872L287.182 76.6036L286.725 74.6628H284.842L284.329 76.6036L283.872 74.6628L282.446 72.7792L280.506 71.3522L278.623 69.9252L277.253 68.0415L275.313 66.1579L273.43 64.6738H271.548L269.665 63.7605L268.695 61.8198L265.842 62.7902L263.902 63.2468L262.932 65.1305L261.505 67.0141L259.565 67.9845L259.166 69.8681V71.7518L260.079 73.6925L260.535 75.5761V77.4598L261.505 79.3434L263.388 81.2841V83.1678L262.418 85.0514L262.019 86.935L261.049 88.8758L260.079 90.7594L259.565 92.643L257.682 94.013L258.709 95.5541Z" stroke="#DDDDDD" stroke-width="2" stroke-miterlimit="10"/>
<path d="M122.11 291.967L124.962 295.334L125.476 297.675L125.875 299.558L126.845 301.442L128.728 303.326L130.611 304.81L132.551 306.18L131.581 308.063L130.611 310.518L131.125 312.401L130.212 314.285L130.611 316.169L131.125 318.109L131.581 319.993L133.065 321.877L134.434 323.76L134.948 325.701V327.585L135.404 329.468L136.317 331.352L137.287 333.293L137.801 335.176L138.2 337.06L136.317 338.43L137.801 340.37L139.684 340.884L141.567 341.797L143.45 341.284L144.876 338.943L145.39 337.06L147.273 336.546L149.156 335.176L149.612 333.293L151.495 332.779L152.465 330.838H154.348L156.231 331.808L158.171 332.779L160.054 333.293L161.937 332.779L163.82 332.322H165.76L167.643 333.692V335.633L168.613 337.516L170.496 338.03V336.089L171.009 334.206L171.922 332.322L172.892 330.439H174.775H177.115H179.511H181.451L183.334 331.808L183.79 330.838L186.187 320.906V314.285L190.923 305.723L198.512 304.81L205.587 302.926H214.545L223.161 306.693L225.501 311.888L227.897 309.034L225.044 306.693L225.501 304.81L226.471 302.926L226.984 300.985L227.384 299.102L228.354 297.218L228.867 295.334L229.78 293.394L230.75 291.51L229.324 289.626L227.897 287.743L226.014 286.259L224.131 284.375L222.191 283.405L221.735 281.521L220.765 279.637L221.278 277.754L222.191 275.813L223.161 273.929L222.648 273.473L205.587 272.559L202.734 262.57H204.617L205.587 260.63V258.746L204.218 256.862L205.131 254.979V253.038L203.704 251.154L201.764 250.184L199.881 249.784L197.998 248.814L196.115 247.844H194.175L192.292 248.3H190.409L188.526 246.93L186.586 245.047H184.703L182.82 244.533L180.938 243.563L178.998 242.193L177.628 240.252H175.745L173.862 239.339L171.922 238.825H170.039H168.156L166.216 237.855L164.79 235.971L162.907 234.601L161.024 233.631L159.084 231.747L157.201 230.263L156.744 228.379L157.201 226.496V224.612L156.744 222.671L155.831 220.788L154.861 218.904L155.831 217.021L156.744 215.08V213.196L155.831 211.312L153.891 211.826H152.009L150.126 212.283H148.243L146.303 212.74L144.42 214.167L142.993 216.05L141.053 217.534L139.17 217.934L137.287 218.904L135.861 220.788L133.978 221.758L132.095 222.272L130.611 224.156L129.242 226.039H127.359L125.476 225.126L123.536 224.612L121.653 225.126L119.77 225.525L118.23 225.925L126.788 239.225L124.392 247.33V250.641L125.305 256.349L122.965 258.689L122.052 264.397L122.452 266.281L121.539 267.708L120.569 269.648L119.656 268.164L117.716 267.251L117.317 269.648L118.686 271.532L116.803 271.989L114.863 272.502L116.803 273.416L118.686 274.386L120.569 274.843L122.452 276.27L124.392 275.756L124.905 277.64L125.305 279.58L123.422 280.494L121.539 281.464L119.656 282.434L118.686 284.318L119.2 286.202L120.569 288.085L121.082 290.026L122.11 291.967Z" stroke="#DDDDDD" stroke-width="2" stroke-miterlimit="10"/>
<path d="M225.501 311.887L223.161 306.693L214.545 302.926H205.587L198.512 304.81L190.923 305.723L186.187 314.285V320.906L183.79 330.838L183.334 331.808L184.703 332.779L186.586 334.206L188.07 336.089L189.04 338.03L190.923 339.4L192.806 341.284L194.689 343.224L196.629 344.138L198.512 345.622H200.395L202.278 346.535L204.218 348.419H206.044L207.47 350.359L209.353 350.759L211.293 352.243L213.176 354.127L215.059 355.097L216.942 356.01L218.882 356.981H220.765L222.648 357.437L224.531 357.951L226.471 359.321L228.354 360.805V362.689L226.984 364.572L226.014 366.456L224.131 368.397L223.618 370.28L222.648 372.621L221.278 374.504L220.765 376.388L220.308 378.329V380.212L222.191 379.756H224.131L226.014 380.212L227.897 381.126L229.78 381.639H231.72L233.603 382.096H235.486H237.369L239.309 382.61L241.192 381.126L243.075 381.639H244.958L246.898 380.212L247.811 378.329L249.237 376.388L251.12 375.018L253.003 374.048L254.487 372.164V370.28L253.973 368.397L254.487 366.456L255.4 364.572V362.689V360.805V358.864V356.981V354.583L256.37 352.7L256.826 350.759L256.37 348.875L254.487 348.419H252.09L250.15 347.962L248.267 346.535L247.811 344.651L247.297 342.768L247.811 340.884L246.898 338.943L246.384 337.06L246.898 335.176L245.928 333.292L244.045 332.322L242.162 331.352L240.222 330.438H238.339L236.456 330.838H234.573H232.633L230.75 331.808L228.867 331.352L226.471 330.438L226.984 328.498L227.384 326.614V324.73L226.471 322.847L227.384 320.906V319.022L226.471 317.139V315.255V313.314L225.501 311.887Z" stroke="#DDDDDD" stroke-width="2" stroke-miterlimit="10"/>
<path d="M121.082 290.026L122.11 291.967L124.962 295.334L125.476 297.675L125.875 299.558L126.845 301.442L128.728 303.326L130.611 304.81L132.551 306.18L131.581 308.063L130.611 310.518L131.125 312.401L130.212 314.285L130.611 316.169L131.125 318.109L131.581 319.993L133.065 321.877L134.434 323.76L134.948 325.701V327.585L135.404 329.468L136.317 331.352L137.287 333.293L137.801 335.176L138.2 337.06L136.317 338.43L137.801 340.37L139.684 340.884L141.567 341.797L143.45 341.284L144.876 338.943L145.39 339.914V341.797L144.876 350.759L135.861 356.467L134.434 359.321L134.948 361.205V363.145L133.464 365.029V366.913L133.978 368.796L134.948 370.737L135.404 372.621L134.434 374.504V376.388L135.861 378.329L136.317 380.212L134.434 381.639V383.58L132.551 385.464L131.125 387.347L130.212 389.231L129.698 391.172L128.728 393.055L127.815 394.939L127.359 396.823L126.845 399.163L126.389 401.047L125.476 402.987L124.506 404.871L124.962 406.755L125.476 408.638L126.389 410.579L126.845 412.463L125.875 414.346L124.962 416.23V418.171L125.476 420.054L123.992 421.938L122.11 422.452L121.653 424.335L123.022 426.276L124.962 428.16L126.845 430.043L125.476 431.927L126.389 433.868L127.359 435.751L128.272 437.635L127.815 439.519L128.272 440.489L129.242 442.373L130.611 444.256L131.125 446.197V448.081L131.581 449.964V451.848L131.125 452.818L129.242 453.789V455.672L128.272 457.556L127.815 459.439L125.875 460.41L125.476 462.293L125.875 464.177L126.845 466.118L127.815 468.001L126.845 469.885L126.389 471.769L124.962 473.709L123.536 475.593V477.477L123.992 479.36L124.506 481.301L123.536 483.185V485.068L124.506 486.952L125.476 488.893L126.389 490.776L126.845 492.66L127.359 494.544L125.476 496.484L123.536 497.854V499.738V501.622L123.022 503.562L122.623 505.446L122.11 507.33V509.213V511.154V513.038V514.921V516.805V518.746L122.623 520.629L123.536 522.513L124.506 524.396L125.476 526.337V528.221L124.962 530.104L123.536 531.589V533.472L123.992 535.356L125.875 536.783L126.845 538.666V540.55V542.434L127.359 544.375L127.815 546.258V548.142L129.698 549.112L131.581 548.142L133.464 549.112L134.434 550.996L132.551 552.423L130.212 552.879H128.272L126.389 553.393L128.272 554.763L130.212 555.733L132.095 556.704L132.551 558.587L130.611 560.471L130.212 562.355V564.295L129.698 566.693L130.611 567.035V568.976L132.095 570.86L131.581 572.743L130.611 574.627L130.212 576.568V578.451L129.242 580.335L128.728 582.219V584.159V586.043L130.212 587.927V589.81L129.242 591.751L127.815 593.635L126.845 595.518L126.389 597.402L125.875 599.343V601.226V603.11L125.476 604.994L126.845 606.877L128.272 608.818L130.212 609.217L132.095 608.304L133.978 606.877L134.948 608.818V610.702L134.434 612.585L134.948 614.469L135.861 616.41L136.317 618.293L136.831 620.177L138.714 621.147H140.654L142.537 620.633L144.42 620.177H146.303H148.243H150.126H152.465L153.378 622.06L152.009 624.001H150.126L148.243 624.401L146.303 625.885L145.39 627.768L145.789 629.652V631.593V633.476V635.36L145.39 637.244H143.45L141.567 636.33L139.684 635.36L138.2 633.476L140.14 631.992L142.023 632.506L143.906 629.652L144.42 627.768L143.906 625.885L142.023 626.341L141.567 628.225L140.654 630.109H138.2L136.831 631.992V634.447L134.948 633.476L134.434 631.593L135.404 629.652V627.768L136.317 625.885L134.434 624.914L133.978 626.855L134.434 628.739L133.065 630.622H131.125L131.581 628.739V626.855H129.698L129.242 624.914L131.125 623.487L130.611 621.604L128.272 620.633L127.359 618.75V616.809L125.875 614.925L124.962 612.585L125.476 610.702L123.536 608.818L123.022 606.877L121.14 605.45L120.683 603.567L121.14 601.683V599.742L120.683 597.859L120.227 595.975L119.77 594.091L118.8 591.751V589.81L116.917 588.383L117.374 586.5L117.887 584.559L115.947 582.219V580.335L115.434 578.451L117.374 577.481V575.597L116.404 573.714L114.521 573.2L113.551 575.084L111.668 574.627L109.785 572.743L108.815 574.627L109.328 576.568L107.445 576.967L106.475 575.084V573.2L107.845 571.316L108.815 569.376V567.492V565.608L110.698 565.152H112.638L114.521 566.122V568.006L114.064 569.889H115.947L117.887 570.86L118.287 568.976V567.035L117.374 565.152L118.8 563.268L117.887 561.384L118.287 559.444L118.8 557.56L120.227 555.676L122.11 554.706L122.623 552.822V550.939L120.683 549.455L118.8 549.055L118.287 547.114V545.231V542.833L117.374 540.95L117.887 539.009L118.8 537.125L118.287 535.242L119.257 533.358L118.8 531.417L117.374 529.534L119.257 530.504L120.227 528.62L118.287 527.65V525.766L118.8 523.826L116.917 522.456L115.034 523.426L114.521 525.31L112.638 525.766H110.298L109.328 523.826L107.445 522.456V520.572V518.688L107.845 516.748V514.864L107.445 512.98V511.097V508.642L107.845 506.759L108.815 504.875V502.991L109.328 501.108L108.815 499.167L107.845 497.283L106.932 495.4L106.475 493.516V491.575V489.692V487.808L105.962 485.925L105.049 483.984L105.505 481.13L107.445 479.246L108.358 477.363L109.328 475.479L109.785 473.538V471.655L109.328 469.771V467.887L110.698 465.947L111.211 464.063L111.668 462.179L112.638 459.839L113.551 457.955V456.015V454.131L114.064 452.247V450.364V448.48L115.034 446.539L115.947 444.656L115.034 442.772L114.521 440.888L115.034 438.948L116.404 437.064L115.434 435.18L115.034 433.297L115.434 431.356V429.472L115.034 427.589L113.094 425.705L112.638 421.881L112.181 419.997L111.668 418.113V415.659L112.181 413.775L113.094 411.892L113.551 410.008L112.181 408.067L113.094 406.184V404.3L112.638 402.416L112.181 400.533V398.592L112.638 396.708L113.094 394.825V392.941L113.551 391V389.117V387.233L114.521 385.35L115.034 383.409V381.069L115.947 378.671L116.917 376.788V374.904L115.434 372.963L114.521 370.623L115.034 368.226L115.947 366.342L116.404 364.458L115.947 362.575V360.634V358.75L116.404 356.867V354.983V352.643L116.917 350.702V348.818L116.404 346.935L115.034 345.051V343.11L116.917 341.227V339.343L117.374 337.459L117.887 335.519V333.635V331.751L118.287 329.868L117.887 327.47L117.374 325.53L115.947 323.646V321.762V319.422V317.025V315.084V313.2L116.404 310.86L115.947 308.463L115.434 306.579L114.064 304.695L113.551 302.755L113.094 300.414L113.551 298.531L113.494 297.618L115.377 297.104L117.317 296.647L119.2 295.677L120.112 293.793L119.656 291.91L121.082 290.026Z" stroke="#DDDDDD" stroke-width="2" stroke-miterlimit="10"/>
<path d="M108.815 527.193V529.077V531.018V532.901V534.785L107.845 536.669V538.609V540.493L108.358 542.377L110.298 541.863H112.181L113.094 539.979V538.096V536.212L111.211 534.785L111.668 532.901L113.094 531.018L112.638 529.077L112.181 527.193L110.298 527.65L108.815 527.193Z" stroke="#DDDDDD" stroke-width="2" stroke-miterlimit="10"/>
<path d="M161.48 642.038L159.597 642.438L157.714 643.922L156.231 642.038H154.348L152.465 641.525L150.582 640.554L148.642 642.038L146.303 642.952L144.42 642.438L142.537 643.922L144.42 644.379L146.303 643.408L146.759 645.292H148.642L150.582 646.776L151.038 644.835L152.978 644.379H154.861L156.744 645.292L158.627 646.262L161.423 644.835L161.48 642.038Z" stroke="#DDDDDD" stroke-width="2" stroke-miterlimit="10"/>
<path d="M134.948 635.36L133.464 637.244L133.978 639.184H135.861L137.801 639.584L139.17 637.7L137.287 635.817L134.948 635.36Z" stroke="#DDDDDD" stroke-width="2" stroke-miterlimit="10"/>
<path d="M155.318 623.487L153.892 625.371V627.255H151.495L149.612 626.341L148.642 628.225V630.109L149.156 631.992L151.039 632.963L152.979 631.593L153.892 633.476L152.009 634.447L151.495 636.33L152.009 638.214L153.892 639.584L155.832 640.098H157.714L159.597 641.068H161.48V638.671L161.024 635.817L160.567 632.506L160.054 630.622V627.768V625.885V624.001L158.171 625.371L156.231 624.914L155.318 623.487Z" stroke="#DDDDDD" stroke-width="2" stroke-miterlimit="10"/>
<path d="M132.095 634.447L130.611 632.506L128.728 631.593H126.845L124.962 630.622L123.022 629.195V631.079L124.506 632.963L126.389 633.476H128.272H130.212L132.095 634.447Z" stroke="#DDDDDD" stroke-width="2" stroke-miterlimit="10"/>
<path d="M115.947 591.751L114.064 592.664H112.181L112.638 594.548L113.551 596.489L111.668 597.859L112.181 599.742L113.094 601.683L115.034 600.713L116.404 602.596L117.374 604.48L119.257 604.994V602.596L118.8 600.713L118.287 598.829L117.374 596.489V594.548L115.947 591.751Z" stroke="#DDDDDD" stroke-width="2" stroke-miterlimit="10"/>
<path d="M163.42 644.835L164.333 646.776L166.216 648.146L168.156 648.66L170.039 647.176L169.525 645.292L167.643 644.835H163.42Z" stroke="#DDDDDD" stroke-width="2" stroke-miterlimit="10"/>
<path d="M162.45 647.176L160.567 646.947H158.627L156.744 647.689L155.832 649.63L157.715 651L159.597 649.63H161.48L163.42 650.03L164.333 648.146L162.45 647.176Z" stroke="#DDDDDD" stroke-width="2" stroke-miterlimit="10"/>
<path d="M256.37 365.371L258.253 364.458L260.136 364.972L261.562 366.856V368.739L262.475 370.623V372.564V374.447L262.076 376.331V378.214L260.592 380.155L258.709 381.525H256.826L254.886 382.495L253.003 383.922L251.12 384.893L250.15 386.776L248.267 387.747L246.384 388.146L244.501 389.117L242.561 391L241.648 392.941L240.222 394.825L238.339 396.708L236.913 398.592L234.973 400.533L233.603 402.416L232.12 404.3L230.75 406.184L229.324 408.067L227.897 410.008L226.984 411.892L226.471 413.775L226.014 415.659L225.501 417.6L225.044 419.483V421.367L224.131 423.251L223.618 425.191L223.161 427.075V428.959L222.648 430.842V432.783V434.667L222.191 436.55L220.765 438.434L220.308 440.375L219.795 442.258V444.142L220.308 446.026L220.765 447.966V449.85L221.278 451.734L223.161 452.704L225.044 453.617L226.984 454.588L228.867 455.558L230.75 456.471L232.12 458.355L231.72 460.296L230.237 462.179V464.063L232.12 465.946L234.06 467.431L234.973 469.314V471.198L234.573 473.139L233.603 475.022L232.633 476.906L230.75 478.789L229.324 480.73L228.354 482.614L227.384 484.497L226.014 486.381H224.131L222.191 486.838L219.795 488.322L217.912 488.721L216.029 489.235L214.146 490.205L212.206 491.176H210.323L207.927 492.089L206.044 492.546L204.218 493.059H202.278L200.395 494.429L198.512 493.059L196.629 493.973L194.689 492.546L192.292 491.176L191.379 493.059L191.836 494.943L193.776 496.313L194.175 498.254L193.776 500.137L191.836 501.564V503.505L191.379 505.389L190.923 507.272L192.292 509.156L192.806 511.097L190.923 512.98L188.526 513.894H186.586H184.703L182.82 514.864H180.938L178.998 512.98L177.115 512.01L175.232 511.496L173.349 511.097L172.379 512.98L171.922 514.864L172.379 516.748L173.349 518.688V520.572V522.456L175.232 523.826L177.115 524.339L178.998 525.766L180.938 524.339L182.82 523.426L183.334 525.31L183.79 527.193L184.247 529.077L182.364 530.047H180.481L179.511 528.164H177.628H175.745L173.862 529.077L174.262 531.018L176.202 531.931H178.085V533.872L176.202 534.271L174.262 535.242L172.379 536.669V538.609V540.493L172.892 542.377L173.349 544.26L174.262 546.201L173.349 548.085L171.409 548.541V550.425V552.309L169.526 552.822L167.643 552.309H165.76L164.79 554.192L162.907 554.706L161.024 556.133L160.054 558.017L159.597 559.9L159.084 561.784V563.725L159.597 565.608L160.054 567.492L161.937 568.976L163.82 569.889L165.76 571.773L167.643 572.229L169.526 571.773L171.409 570.86L172.892 572.743L173.349 574.627V576.568L171.922 578.451V580.335L170.039 582.218L168.156 583.189L166.216 584.559L164.333 586.499L162.45 588.383L161.48 590.267L160.054 592.15H161.937L162.45 594.091L161.024 595.975L160.054 597.858V599.742L158.171 600.256L156.231 598.372L155.318 600.256L156.231 602.139L155.318 604.08L154.348 605.964L151.495 610.701L153.378 610.188L154.862 612.071L155.318 614.012V616.409L157.201 617.323L159.084 618.293L160.567 620.177L159.597 622.06H157.714L155.318 621.147L153.378 622.06L152.465 620.177H150.126H148.243H146.303H144.42L142.537 620.633L140.654 621.147H138.714L136.831 620.177L136.317 618.293L135.861 616.409L134.948 614.469L134.434 612.585L134.948 610.701V608.818L133.978 606.877L132.095 608.304L130.212 609.217L128.272 608.818L126.845 606.877L125.476 604.993L125.875 603.11V601.226V599.343L126.389 597.402L126.845 595.518L127.815 593.635L129.242 591.751L130.212 589.81V587.926L128.728 586.043V584.159V582.218L129.242 580.335L130.212 578.451V576.568L130.611 574.627L131.581 572.743L132.095 570.86L130.611 568.976V567.035L129.698 566.693L130.212 564.295V562.355L130.611 560.471L132.551 558.587L132.095 556.704L130.212 555.733L128.272 554.763L126.389 553.393L128.272 552.879H130.212L132.551 552.423L134.434 550.996L133.464 549.112L131.581 548.142L129.698 549.112L127.815 548.142V546.258L127.359 544.374L126.845 542.434V540.55V538.666L125.875 536.783L123.993 535.356L123.536 533.472V531.588L124.963 530.104L125.476 528.221V526.337L124.506 524.396L123.536 522.513L122.623 520.629L122.11 518.745V516.805V514.921V513.037V511.154V509.213V507.329L122.623 505.446L123.022 503.562L123.536 501.621V499.738V497.854L125.476 496.484L127.359 494.544L126.845 492.66L126.389 490.776L125.476 488.893L124.506 486.952L123.536 485.068V483.185L124.506 481.301L123.993 479.36L123.536 477.477V475.593L124.963 473.709L126.389 471.769L126.845 469.885L127.815 468.001L126.845 466.118L125.875 464.177L125.476 462.293L125.875 460.41L127.815 459.439L128.272 457.556L129.242 455.672V453.788L131.125 452.818L131.581 451.848V449.964L131.125 448.08V446.197L130.611 444.256L129.242 442.372L128.272 440.489L127.815 439.518L128.272 437.635L127.359 435.751L126.389 433.868L125.476 431.927L126.845 430.043L124.963 428.16L123.022 426.276L121.653 424.335L122.11 422.452L123.993 421.938L125.476 420.054L124.963 418.17V416.23L125.875 414.346L126.845 412.462L126.389 410.579L125.476 408.638L124.963 406.754L124.506 404.871L125.476 402.987L126.389 401.046L126.845 399.163L127.359 396.823L127.815 394.939L128.728 393.055L129.698 391.172L130.212 389.231L131.125 387.347L132.551 385.464L134.434 383.58V381.639L136.317 380.212L135.861 378.329L134.434 376.388V374.504L135.404 372.621L134.948 370.737L133.978 368.796L133.464 366.913V365.029L134.948 363.145V361.205L134.434 359.321L135.861 356.467L144.876 350.759L145.39 341.797V339.914L144.876 338.943L145.39 337.06L147.273 336.546L149.156 335.176L149.612 333.292L151.495 332.779L152.465 330.838H154.348L156.231 331.808L158.171 332.779L160.054 333.292L161.937 332.779L163.82 332.322H165.76L167.643 333.692V335.633L168.613 337.516L170.496 338.03V336.089L171.009 334.206L171.922 332.322L172.892 330.438H174.775H177.115H179.511H181.451L183.334 331.808L184.703 332.779L186.586 334.206L188.07 336.089L189.04 338.03L190.923 339.4L192.806 341.284L194.689 343.224L196.629 344.138L198.512 345.622H200.395L202.278 346.535L204.218 348.419H206.044L207.47 350.359L209.353 350.759L211.293 352.243L213.176 354.127L215.059 355.097L216.942 356.01L218.882 356.981H220.765L222.648 357.437L224.531 357.951L226.471 359.321L228.354 360.805V362.689L226.984 364.572L226.014 366.456L224.131 368.397L223.618 370.28L222.648 372.621L221.278 374.504L220.765 376.388L220.308 378.329V380.212L222.191 379.756H224.131L226.014 380.212L227.897 381.126L229.78 381.639H231.72L233.603 382.096H235.486H237.369L239.309 382.61L241.192 381.126L243.075 381.639H244.958L246.898 380.212L247.811 378.329L249.237 376.388L251.12 375.018L253.003 374.048L254.487 372.164V370.28L253.973 368.397L254.487 366.456L256.37 365.371Z" stroke="#DDDDDD" stroke-width="2" stroke-miterlimit="10"/>
<path d="M162.45 641.525L164.333 642.952L166.216 643.922H168.156H170.039L171.922 644.379L173.862 645.292L176.201 644.835L178.084 644.379L179.967 643.922L181.85 643.408L181.451 641.525H179.511L177.628 641.068H175.745L174.261 639.184L172.378 638.671L170.496 638.214L168.613 637.244L167.643 635.36L165.76 634.447L164.333 632.506L163.42 630.622H161.48L161.937 628.739V626.855L160.567 624.914L160.054 624.001V625.885V627.768V630.622L160.567 632.506L161.024 635.817L161.48 638.671V641.068L162.45 641.525Z" stroke="#DDDDDD" stroke-width="2" stroke-miterlimit="10"/>
<path d="M227.897 410.008L226.984 411.892L226.471 413.775L226.014 415.659L225.501 417.6L225.044 419.483V421.367L224.131 423.251L223.618 425.191L223.161 427.075V428.959L222.648 430.842V432.783V434.667L222.191 436.55L220.765 438.434L221.278 440.888V442.772L221.735 444.656L222.191 446.539L224.131 447.966L226.014 449.393H227.897L229.78 448.88L231.72 449.393L233.089 451.277L234.059 453.218L235.942 454.131H237.825H239.708L241.648 453.218L243.531 453.617L245.414 454.131L247.297 454.588L249.237 455.101H251.12L253.003 454.131L254.487 452.247L256.37 451.734L258.253 450.364L258.709 448.48L260.135 446.539L262.075 445.112V443.229L261.105 441.288L260.135 439.404L261.105 437.521L262.075 435.637H263.958V433.696L262.075 431.813L260.592 429.929L259.223 428.045L257.739 426.105L255.856 424.735L253.973 423.251L252.09 422.337L250.15 420.91L248.267 419.483L247.297 417.6L245.928 415.659L244.045 416.173L242.162 415.259L240.678 413.319L238.795 411.435L236.912 410.008L235.942 408.067H234.059L232.119 409.038L230.236 409.551L227.897 410.008Z" stroke="#DDDDDD" stroke-width="2" stroke-miterlimit="10"/>
</svg>
