<svg width="416" height="416" viewBox="0 0 417 417" fill="none" xmlns="http://www.w3.org/2000/svg">
<path d="M1 415.667V1H415.667V415.667H1Z" stroke="#DDDDDD" stroke-width="2"/>
<path d="M371.476 220.103L342.676 238.594C339.432 232.982 336 228.936 331.981 226.27C327.727 223.448 322.902 222.227 317.13 222.227C311.182 222.227 306.243 224.117 302.782 227.319C299.317 230.524 297.393 234.989 297.393 240.006C297.393 246.143 299.317 250.543 303.457 254.311C307.516 258.005 313.685 261.07 322.07 264.701L322.073 264.702L331.861 268.895C331.861 268.895 331.861 268.895 331.861 268.895C348.47 276.018 361.319 283.153 370.024 292.499C378.685 301.799 383.306 313.356 383.306 329.484C383.306 346.82 376.51 360.168 365.187 369.203C353.838 378.26 337.858 383.047 319.425 383.047C283.879 383.047 260.87 366.348 249.399 344.395L279.556 326.875C283.676 333.448 288.45 339.209 294.547 343.375C300.917 347.727 308.674 350.299 318.519 350.299C326.787 350.299 333.659 348.234 338.492 344.647C343.344 341.046 346.106 335.93 346.106 329.987C346.106 326.492 345.411 323.515 344.05 320.898C342.691 318.286 340.696 316.084 338.167 314.098C333.15 310.159 325.887 306.965 317.001 303.078L316.995 303.076L307.206 298.876L307.204 298.875C293.124 292.876 281.53 286.168 273.453 277.074C265.406 268.014 260.788 256.518 260.788 240.8C260.788 226.382 266.276 213.722 276.027 204.661C285.781 195.597 299.862 190.081 317.13 190.081C329.462 190.081 339.983 192.226 348.995 197.127C357.779 201.903 365.201 209.336 371.476 220.103ZM141.217 330.304C144.108 335.409 146.997 340.22 150.752 343.801C154.776 347.638 159.782 350.054 166.779 350.054C173.312 350.054 178.89 348.781 182.806 344.792C186.713 340.812 188.758 334.34 188.758 324.451V192.316H225.911V324.98C225.911 345.054 220.032 359.508 210.004 368.953C199.965 378.407 185.626 382.975 168.446 382.975C137.966 382.975 120.207 367.465 111.003 348.596L141.217 330.304Z" stroke="#DDDDDD" stroke-width="2"/>
</svg>
