<svg width="434" height="281" viewBox="0 0 434 281" fill="none" xmlns="http://www.w3.org/2000/svg">
<path d="M180.512 173.395C176.51 176.478 168.293 189.504 155.824 179.053C155.824 179.053 173.599 184.478 175.082 168.277C175.082 168.277 179.768 165.717 180.512 173.395Z" fill="#DDDDDD"/>
<path d="M172.685 187.58C173.153 187.709 173.69 187.841 174.262 187.95C175.201 188.129 176.266 188.256 177.308 188.208C178.341 188.161 179.426 187.939 180.34 187.355C181.149 186.838 181.722 186.283 182.18 185.783C182.374 185.571 182.528 185.393 182.664 185.237C182.88 184.987 183.051 184.791 183.259 184.599C183.536 184.343 183.785 184.197 184.124 184.132C184.494 184.061 185.059 184.07 185.985 184.301L185.986 184.302C187.033 184.562 187.937 184.647 188.66 184.428C189.046 184.312 189.388 184.106 189.653 183.798C189.913 183.495 190.051 183.148 190.119 182.817C190.248 182.194 190.154 181.498 190.041 180.907C189.98 180.587 189.89 180.191 189.803 179.811C189.739 179.532 189.678 179.262 189.631 179.037L189.631 179.037C189.48 178.311 189.229 177.639 188.993 177.047C188.946 176.929 188.9 176.815 188.856 176.704C188.668 176.237 188.506 175.833 188.386 175.431C188.243 174.948 188.19 174.551 188.236 174.191C188.28 173.848 188.423 173.47 188.786 173.034C189.914 171.683 190.423 169.79 189.799 168.114C189.147 166.36 187.395 165.183 184.705 165.032L184.705 165.032C182.728 164.921 181.255 165.103 180.077 165.249C179.751 165.289 179.447 165.326 179.162 165.354C177.891 165.477 176.839 165.441 175.252 164.675L175.252 164.675C174.436 164.282 173.992 163.948 173.715 163.714C173.642 163.652 173.578 163.595 173.513 163.537C173.507 163.532 173.5 163.526 173.494 163.52C173.438 163.47 173.374 163.413 173.314 163.362C173.189 163.257 172.959 163.071 172.638 162.985C172.278 162.889 171.956 162.953 171.703 163.045C171.471 163.13 171.233 163.263 171.001 163.401C170.801 163.52 170.558 163.672 170.274 163.851C170.216 163.887 170.157 163.924 170.095 163.963C169.727 164.194 169.276 164.474 168.718 164.81C164.626 167.272 161.277 166.359 158.641 165.641C158.606 165.632 158.571 165.622 158.537 165.613C156.958 165.181 155.17 165.422 154.03 166.772C153.055 167.929 152.765 169.653 153.221 171.819C153.038 171.589 152.862 171.36 152.702 171.147C152.516 170.9 152.355 170.68 152.234 170.512L154.354 157.514L188.369 156.209L198.834 176.485L192.226 189.3L173.662 191.161L172.685 187.58Z" stroke="#DDDDDD" stroke-width="2"/>
<path d="M191.854 177.371C191.854 177.371 196.303 186.328 188.144 187.608C179.989 188.887 170.11 191.01 168.627 182.49C168.627 182.49 152.818 186.328 154.302 170.127C155.243 159.844 158.989 162.45 165.661 163.73C172.336 165.009 164.181 153.493 182.212 161.812C182.212 161.812 197.786 161.171 191.854 177.371Z" stroke="#DDDDDD" stroke-width="2" stroke-miterlimit="3.864"/>
<path d="M260.873 128.315C260.533 128.22 130.558 89.3885 131.959 124.144C132.717 142.917 147.653 148.149 147.653 148.149C147.653 148.149 173.959 141.802 170.927 157.958L168.774 159.623C168.774 159.623 168.038 164.394 163.347 170.192C158.656 175.989 165.394 154.035 156.525 154.035C147.653 154.035 124.15 159.267 115.283 152.073C106.411 144.879 91.2472 136.109 101.863 120.412C112.475 104.717 128.393 97.0617 155.993 93.7908C183.592 90.5208 271.383 105.37 294.657 126.105C317.932 146.84 289.879 172.041 275.931 158.42C273.595 156.139 272.899 149.264 275.931 144.225C278.963 139.186 277.652 133.088 260.873 128.315Z" stroke="#DDDDDD" stroke-width="2" stroke-miterlimit="3.864"/>
<path d="M388.848 194.728C397.38 211.151 413.13 231.535 424.286 221.907C427.303 219.304 432.163 213.696 432.163 210.016C432.163 202.373 419.691 204.212 416.41 196.993M400.005 195.862C401.971 192.323 405.256 191.189 405.256 187.37C405.256 180.716 398.035 178.167 398.035 171.516C398.035 164.013 404.597 160.332 404.597 152.829C404.597 147.875 397.544 146.036 391.802 146.036C379.33 146.036 372.768 152.263 360.301 152.263C350.948 152.263 345.701 149.998 336.349 149.998C329.128 149.998 324.862 151.982 318.629 155.094M358.003 148.301C365.056 142.779 365.056 136.125 373.097 131.879C384.91 125.51 397.379 121.122 397.379 109.091V96.9153C397.379 80.3543 371.783 78.6578 352.589 78.6578C346.517 78.6578 343.072 78.2313 337.004 78.0891C343.401 77.6657 349.473 73.9851 349.473 68.4659C349.473 64.3587 347.341 62.2358 347.341 58.1318C347.341 55.5822 347.341 54.0278 347.502 51.4784M385.566 71.8622C357.184 67.0507 363.91 25.9974 335.527 25.9974H329.782C330.111 30.3855 331.752 32.9352 331.752 37.3236C331.752 53.6003 306.976 56.1499 305.5 72.4273M298.283 68.4656C302.384 67.6158 304.845 67.0502 308.781 65.635M358.002 43.5514C360.789 42.7015 362.268 41.8516 365.219 41.8516C376.047 41.8516 375.886 53.4589 382.939 60.539C391.141 68.7468 401.969 72.2854 401.969 83.1849C401.969 86.7264 401.314 89.1309 398.689 91.6802M401.969 88.2808C431.502 98.4728 426.416 126.503 428.876 153.397C422.644 153.397 415.752 155.801 415.752 161.181V168.681M426.91 157.924C429.535 164.719 432.816 168.4 432.816 175.477C432.816 179.158 429.535 180.857 429.535 184.538C429.535 189.773 432.816 192.322 432.816 197.561C432.816 200.107 429.861 200.672 427.565 202.088M413.127 122.255C414.276 128.482 419.524 130.605 424.94 134.709M367.844 110.929C364.398 107.106 361.937 103.994 356.36 103.568L340.281 106.398C333.555 105.548 331.914 100.595 325.843 98.4715C313.539 94.0834 302.872 100.456 291.718 93.9442C277.77 85.7332 284.662 70.022 271.373 61.1036C265.137 56.9964 259.069 58.8384 251.028 58.8384C245.616 58.8384 243.646 62.9424 239.87 66.1995C234.129 59.9694 226.208 57.8936 216.903 59.4038C210.473 60.4464 211.488 66.7649 202.465 66.7649C184.416 66.7649 186.386 59.9692 168.337 59.9692C160.135 59.9692 155.049 55.581 149.307 60.5378C145.206 64.0762 145.041 68.8879 139.464 70.1611C112.392 76.5303 71.2113 86.2988 71.2113 110.364C71.2113 112.629 72.5222 113.76 72.5222 116.026C72.5222 123.387 68.5857 125.652 68.5857 133.013C68.5857 147.732 82.6984 154.237 93.5226 159.058C98.6087 161.324 101.07 161.605 106.65 161.889M239.871 65.6332C239.707 68.3218 239.216 69.8793 238.56 72.4258M219.526 81.4867V85.4485C220.35 85.7328 221.17 86.014 222.152 86.014M159.81 69.595V76.3907C161.45 74.8332 162.596 73.8412 164.401 72.4259M88.9314 116.59C90.5719 119.14 92.7029 121.121 96.1487 121.121C98.939 121.121 100.58 120.129 102.711 118.855M250.373 107.532L246.436 103.002C249.717 94.5096 256.935 90.9712 256.935 82.0523M289.091 93.3753C287.451 94.2252 286.466 94.9329 285.151 96.206M296.309 128.481C302.215 121.405 308.286 119.421 314.684 112.628M309.436 117.156C313.699 116.451 316.163 116.024 320.59 116.59M325.841 139.805C331.092 136.408 335.029 132.87 335.029 127.066C335.029 120.697 331.748 117.298 331.748 110.929C331.748 108.24 333.553 106.825 333.718 104.133M134.867 174.346H128.47C114.197 174.346 106.979 167.55 92.7018 167.55H79.9074C69.0795 167.55 67.439 156.934 57.4275 153.396C45.2887 149.147 32.4906 145.327 32.4906 134.001V131.313M26.5842 138.674C28.7154 138.108 30.1946 137.824 32.4906 137.539M46.9289 161.323C42.4981 162.738 39.2173 163.727 37.086 167.55C48.4046 174.061 56.6072 176.042 70.0615 176.042H82.8596C88.766 176.042 90.9009 181.138 96.8073 181.138C97.9534 181.138 98.4478 180.149 99.4292 180.007M280.645 228.704L277.939 227.005C273.838 225.305 269.407 223.608 269.407 219.644C269.407 218.655 270.722 218.37 270.722 217.378C270.722 213.559 267.437 211.859 267.437 208.036C267.437 203.932 270.722 202.09 271.377 198.129C273.183 188.929 273.347 181.707 279.909 179.445C281.125 179.024 285.321 178.029 286.471 178.31C289.261 171.091 296.644 167.553 305.502 167.553C306.816 167.553 306.977 168.968 308.127 169.253C310.262 164.58 309.442 159.626 315.345 159.626C326.502 159.626 340.285 160.757 342.255 169.818C366.537 172.649 379.331 184.964 390.163 203.789L388.848 208.32C391.803 212.281 393.444 215.396 393.444 220.208C393.444 223.889 390.818 226.012 387.537 228.138L388.848 238.327C388.848 239.461 389.504 240.169 389.504 241.3C389.504 252.341 378.185 258.003 365.878 260.976C355.87 263.383 353.409 273.433 342.911 273.433C340.285 273.433 338.81 272.16 337.66 270.036C334.544 272.017 333.064 274.564 329.128 274.564C322.731 274.564 320.105 270.036 314.034 268.337C304.681 265.648 293.033 264.941 293.033 256.445C293.033 254.183 295.168 253.472 296.97 251.918C294.348 251.068 292.543 250.784 289.752 250.784C289.752 250.784 279.91 241.157 291.723 238.327C303.536 235.496 284.585 229.835 280.645 228.704Z" stroke="#DDDDDD" stroke-width="2" stroke-miterlimit="3.864"/>
<path d="M39.7128 164.735H29.3792C22.1582 164.735 19.6973 159.923 13.4649 156.808L12.8094 154.543L16.7459 156.808M153.248 189.081C141.435 191.63 134.218 190.78 122.08 190.78C115.188 190.78 111.578 187.384 104.686 187.384C100.259 187.384 97.9598 190.215 93.529 190.215C85.4913 190.215 81.8808 185.119 73.8431 185.119C65.4759 185.119 60.8805 187.949 52.5132 187.949C28.7226 187.949 1 180.023 1 159.496V146.758C1 141.52 5.42713 138.831 10.1876 135.859C9.03776 133.17 8.21747 131.47 8.21747 128.497C8.21747 114.909 16.0941 108.537 22.0005 95.657L24.626 95.0914L26.5924 97.3566C27.2479 96.3646 28.5625 95.7992 28.5625 94.5261C28.5625 89.5723 26.5924 86.7416 26.5924 81.7846C26.5924 70.1774 33.6488 62.535 46.2819 57.1547L51.5293 58.2889C53.6641 45.2663 65.803 41.1591 78.4361 33.9401C88.7733 27.9941 92.8745 19.2209 105.343 19.2209C109.448 19.2209 112.07 20.2098 115.845 21.483C125.033 5.48734 142.587 3.36448 162.437 3.36448C168.837 3.36448 174.579 2.9411 178.19 7.32926C182.126 3.93297 184.917 1.66778 190.329 1.66778C196.4 1.66778 199.846 3.36424 205.917 3.36424H220.026C226.753 3.36424 230.198 1.10223 236.925 1.10223C246.603 1.10223 252.184 3.64864 260.877 7.32918L274.005 5.62944C280.076 6.33714 283.518 9.5943 286.473 14.1248M286.473 14.1248C288.769 12.9906 290.245 11.8595 293.035 11.8595C304.848 11.8595 309.444 23.748 309.444 33.9401C309.444 37.4784 308.624 39.7437 306.818 43.001M286.473 14.1248C287.458 20.2097 287.129 23.7481 287.129 29.8361C287.129 35.6397 281.552 37.7629 278.597 43.0009C275.151 48.9468 276.136 54.1816 270.724 58.8542M329.13 25.4478C322.897 21.483 319.287 16.9557 311.41 16.9557C308.785 16.9557 307.309 17.6634 304.848 18.6522M250.379 24.8833C245.622 26.8642 243.817 28.9874 240.536 32.2445C242.502 34.5097 243.982 36.3485 245.128 39.0371M239.877 31.676C233.479 34.791 228.884 36.2065 221.502 36.2065C211.823 36.2065 203.456 31.8183 201.157 23.7495M206.408 40.1715C205.262 38.7561 203.782 37.7641 203.782 35.9254C203.782 33.9414 204.932 32.8104 205.752 31.1105M216.251 14.6916C215.595 12.9919 214.284 12.003 214.284 10.1611C214.284 7.47255 217.071 6.4804 218.876 4.49956M178.844 8.46122C178.844 17.0957 178.679 22.0527 178.679 30.6869C178.679 38.6137 184.586 42.1521 188.687 49.2289M115.907 20.9721C114.596 22.953 113.282 24.2295 113.282 26.6337C113.282 33.145 121.158 35.4103 121.158 41.9216C121.158 46.4521 115.907 48.1517 115.907 52.679C115.907 63.7209 133.791 61.3167 142.814 69.1012M85.718 61.1744C87.0289 61.1744 87.6845 60.6088 88.9989 60.6088C91.1301 60.6088 92.1151 62.3053 93.5907 63.4394M89.6542 87.785C82.7626 73.2048 53.0701 79.8582 51.5902 64.0049M46.3427 92.8816C56.1857 92.8816 60.1221 98.8275 69.9687 100.243M25.9973 96.2779C28.2933 108.17 45.3575 107.604 49.6234 118.927M336.413 270.671C336.574 269.397 337.069 268.548 337.069 267.274C337.069 265.859 334.443 265.859 334.443 264.444C334.443 260.056 339.694 259.063 343.631 256.514M336.414 259.913C335.264 255.948 331.818 254.533 330.507 250.852M355.444 266.706C353.804 263.736 352.163 262.036 352.163 258.779C352.163 256.513 353.474 255.382 353.474 253.117C353.474 247.029 345.766 245.475 344.287 239.529M352.818 249.721C353.148 247.879 353.474 246.891 354.133 245.191M352.818 260.479C351.013 260.194 349.538 259.913 347.567 259.913M386.286 228.771C379.56 225.513 376.444 221.409 368.567 220.275M380.38 225.371C380.38 224.382 379.069 224.098 379.069 223.109C379.069 220.56 381.694 219.428 381.694 216.879M388.256 244.058C385.301 238.819 381.53 234.431 374.803 234.431C372.013 234.431 370.702 236.697 367.911 236.697C365.615 236.697 365.451 234.005 363.319 233.297M381.694 236.697C377.919 237.828 375.623 239.67 373.162 242.358M313.443 268.403C314.754 262.6 318.694 260.053 318.694 254.25M342.32 169.882C339.365 173.421 338.38 176.678 338.38 181.206C338.38 186.021 330.507 186.586 330.507 191.398C330.507 194.655 334.444 196.07 334.444 199.325C334.444 201.309 333.129 202.44 333.129 204.42C333.129 205.412 335.264 204.847 335.755 205.555M331.818 195.362C330.507 196.636 329.522 197.767 328.537 199.324M335.755 186.301C337.395 189.701 340.185 190.832 341.661 194.228M338.38 178.375C337.395 178.517 336.74 178.941 335.755 178.941C332.638 178.941 330.998 178.375 327.882 178.375M337.725 188.567C339.53 189.275 341.005 189.84 342.976 190.266M358.725 174.413C357.575 181.348 350.848 183.898 350.848 190.832C350.848 191.824 351.998 192.248 352.163 193.097M352.818 184.605C350.028 184.321 348.223 183.187 346.912 181.206M377.1 185.736C370.538 190.125 371.688 196.636 363.976 199.893M370.538 194.228C370.538 197.059 370.702 198.901 371.849 201.59M388.913 207.82C387.928 207.82 387.437 207.251 386.452 207.251C384.156 207.251 383.336 208.951 381.036 208.951C377.265 208.951 375.624 206.685 371.849 206.685C366.107 206.685 363.811 211.781 358.069 211.781C354.133 211.781 352.163 209.8 348.223 210.082" stroke="#DDDDDD" stroke-width="2" stroke-miterlimit="3.864"/>
<path d="M233.338 187.392C238.424 189.515 242.361 190.365 245.807 194.185L245.151 200.98L243.84 203.246C239.735 198.434 234.653 195.742 234.653 189.658C234.653 188.808 233.338 188.242 233.338 187.392Z" fill="#DDDDDD" stroke="#DDDDDD" stroke-width="2" stroke-miterlimit="3.864"/>
<path d="M191.368 181.165C191.368 181.165 199.86 175.504 201.83 182.299C202.584 184.909 202.178 189.026 202.061 193.36M243.4 225.138C235.549 208.697 228.449 195.05 224.798 190.791C210.477 174.072 205.768 172.107 190.018 174.372M292.435 279.118C292.435 279.118 284.518 268.36 281.893 255.338C279.187 241.904 279.927 239.484 288.459 237.219C288.459 237.219 295.021 233.254 287.144 233.254C279.267 233.254 262.862 237.219 255.645 226.462C248.424 215.704 233.986 185.128 230.049 180.597C226.113 176.066 217.581 159.082 232.675 158.516C247.769 157.948 247.769 161.347 253.02 157.948C258.267 154.551 257.612 153.986 261.552 158.516C265.488 163.044 270.08 152.852 265.488 150.59M270.78 155.117C270.78 155.117 274.676 161.347 268.769 164.743C262.863 168.14 264.177 160.778 259.582 161.913C250.394 164.178 242.518 158.516 244.488 164.743C246.458 170.97 243.832 175.501 236.611 172.67C229.394 169.84 228.079 174.935 235.956 177.201C243.832 179.466 240.551 173.236 251.705 177.766C262.862 182.297 253.675 184.562 259.582 191.92C265.488 199.281 268.114 204.377 262.862 210.607C257.611 216.834 256.956 227.026 268.769 228.726C280.582 230.422 280.582 228.726 280.582 228.726L277.956 227.026C273.855 225.326 269.424 223.63 269.424 219.665C269.424 218.676 270.739 218.392 270.739 217.4C270.739 213.58 267.455 211.881 267.455 208.058C267.455 203.954 270.739 202.112 271.395 198.15C273.2 188.95 273.365 181.728 279.927 179.466C281.142 179.046 285.339 178.05 286.489 178.332C289.279 171.113 296.661 167.574 305.519 167.574C306.834 167.574 306.995 168.99 308.145 169.274C310.28 164.601 309.459 159.648 315.362 159.648C326.52 159.648 340.303 160.779 342.273 169.84C366.554 172.67 379.348 184.985 390.18 203.81L388.866 208.341C391.821 212.303 393.461 215.418 393.461 220.229C393.461 223.91 390.836 226.033 387.555 228.159L388.866 238.348C388.866 239.482 389.521 240.19 389.521 241.321C389.521 252.363 378.203 258.024 365.895 260.997C355.887 263.404 353.427 273.454 342.928 273.454C340.303 273.454 338.827 272.181 337.677 270.058C334.561 272.039 333.082 274.585 329.145 274.585C322.748 274.585 320.123 270.058 314.051 268.358C304.699 265.67 293.051 264.962 293.051 256.466C293.051 254.204 295.186 253.494 296.987 251.939C294.365 251.089 292.56 250.805 289.77 250.805C289.279 244.758 275.068 243.008 299.792 280.098" stroke="#DDDDDD" stroke-width="2" stroke-miterlimit="3.864"/>
</svg>
