<svg width="214" height="212" viewBox="0 0 214 212" fill="none" xmlns="http://www.w3.org/2000/svg">
<path d="M56.2766 23.583L56.2767 23.6534L56.3345 46.9284H106.894H107.894V47.9284V55.2162V56.2162H106.894H34.8589H34.8024L34.7477 56.21L34.7473 56.21L34.7462 56.2098L34.746 56.2098L34.7335 56.2085C34.721 56.2073 34.7005 56.2053 34.6721 56.2028C34.6153 56.1978 34.5272 56.1908 34.4099 56.1836C34.1752 56.1694 33.8239 56.1546 33.3726 56.1542C32.4696 56.1535 31.1694 56.2107 29.6048 56.4444C26.4743 56.9121 22.3028 58.0839 18.1325 60.8989C9.84739 66.4913 1.28711 78.771 1.28711 105.809C1.28711 132.889 8.7777 145.7 16.0175 151.776C19.6502 154.825 23.2734 156.226 25.9779 156.867C27.3311 157.188 28.4537 157.318 29.2304 157.368C29.6186 157.393 29.9198 157.399 30.1194 157.398C30.1684 157.398 30.2112 157.397 30.2477 157.397C30.2856 157.396 30.3167 157.395 30.3407 157.394C30.3642 157.393 30.3809 157.392 30.3906 157.392L30.3982 157.392L30.3996 157.392L30.3998 157.391L30.4004 157.391L30.4302 157.39H30.4622H47.4708V133.107L47.4705 133.095C47.4701 133.078 47.4696 133.054 47.4691 133.022C47.4681 132.96 47.4672 132.869 47.4674 132.753C47.4678 132.52 47.4726 132.182 47.4898 131.756C47.5243 130.904 47.6085 129.693 47.8075 128.242C48.2049 125.346 49.0633 121.468 50.9155 117.576C52.77 113.679 55.6297 109.752 60.0314 106.802C64.4382 103.849 70.3267 101.918 78.164 101.918H129.299H129.307L56.2766 23.583ZM56.2766 23.583L56.2672 23.5179L56.2672 23.5177L56.267 23.5167C56.267 23.5164 56.267 23.5168 56.2669 23.5161C56.2669 23.5156 56.2668 23.515 56.2667 23.5142C56.2661 23.509 56.2648 23.4984 56.2631 23.4825C56.2597 23.4507 56.2547 23.398 56.2498 23.3258C56.2401 23.1813 56.2311 22.9589 56.2371 22.6699C56.2491 22.0916 56.321 21.2486 56.5661 20.2287C57.0544 18.1968 58.2355 15.4381 61.0472 12.6515C66.6819 7.06684 79.0231 1.22656 105.93 1.22656C134.022 1.22656 146.693 8.25567 152.388 14.9958C155.241 18.3718 156.396 21.7327 156.843 24.2365C157.068 25.4904 157.114 26.5303 157.106 27.2488C157.102 27.6079 157.084 27.886 157.068 28.0696C157.059 28.1613 157.052 28.2293 157.047 28.2719C157.044 28.2932 157.042 28.3082 157.041 28.3165L157.04 28.3216L157.04 28.3232L157.04 28.3241L56.2766 23.583ZM87.7768 25.8242C87.7768 20.1424 83.1833 15.5488 77.5015 15.5488C71.8197 15.5488 67.2261 20.1424 67.2261 25.8242C67.2261 31.5059 71.8197 36.0995 77.5015 36.0995C83.1833 36.0995 87.7768 31.5059 87.7768 25.8242Z" stroke="#DDDDDD" stroke-width="2"/>
<path d="M157.118 188.582L157.117 188.511L157.06 165.236H106.501H105.501V164.236V156.949V155.949H106.501H178.535H178.592L178.646 155.955L178.647 155.955L178.648 155.955L178.648 155.955L178.661 155.956C178.673 155.958 178.694 155.96 178.722 155.962C178.759 155.965 178.808 155.969 178.87 155.974C178.904 155.976 178.942 155.979 178.984 155.981C179.219 155.995 179.57 156.01 180.021 156.011C180.924 156.011 182.225 155.954 183.789 155.72C186.92 155.253 191.091 154.081 195.262 151.266C203.547 145.673 212.107 133.394 212.107 106.356C212.107 79.2754 204.616 66.4646 197.377 60.3888C193.744 57.3401 190.121 55.939 187.416 55.298C186.063 54.9772 184.94 54.847 184.164 54.7965C183.776 54.7713 183.474 54.766 183.275 54.7668C183.175 54.7672 183.101 54.7691 183.053 54.7707C183.03 54.7715 183.013 54.7723 183.003 54.7728L182.996 54.7732L182.994 54.7732L182.994 54.7733L182.994 54.7733L182.964 54.7752H182.932H165.923V79.058L165.924 79.0694C165.924 79.0866 165.925 79.1111 165.925 79.1424C165.926 79.2052 165.927 79.2957 165.927 79.4122C165.926 79.6452 165.922 79.9823 165.904 80.4086C165.87 81.2608 165.786 82.4718 165.587 83.9224C165.189 86.8185 164.331 90.6971 162.479 94.5889C160.624 98.4855 157.764 102.413 153.363 105.363C148.956 108.316 143.067 110.247 135.23 110.247H84.0951H84.087L157.118 188.582ZM157.118 188.582L157.127 188.647M157.118 188.582L157.127 188.647M84.079 110.247L84.0796 110.247L84.079 110.247ZM84.079 110.247L84.0776 110.247M84.079 110.247L84.0776 110.247M157.127 188.647L157.127 188.648M157.127 188.647L157.127 188.648M157.127 188.648L157.127 188.65M157.127 188.648L157.127 188.65M157.127 188.65L157.127 188.651M157.127 188.65L157.127 188.651M157.127 188.651C157.128 188.656 157.129 188.666 157.131 188.682C157.132 188.694 157.134 188.708 157.135 188.726C157.138 188.755 157.141 188.793 157.144 188.839C157.154 188.984 157.163 189.206 157.157 189.495C157.145 190.073 157.073 190.916 156.828 191.936C156.34 193.968 155.159 196.727 152.347 199.513C146.712 205.098 134.371 210.938 107.464 210.938C79.372 210.938 66.7012 203.909 61.006 197.169C58.1535 193.793 56.9981 190.432 56.5507 187.928C56.3266 186.674 56.28 185.635 56.2884 184.916C56.2926 184.557 56.3105 184.279 56.3266 184.095C56.3346 184.003 56.3422 183.935 56.3474 183.893C56.35 183.872 56.352 183.857 56.3532 183.848L56.3539 183.843L56.3541 183.842M157.127 188.651L56.3541 183.842M56.3541 183.842L56.3543 183.841L56.3541 183.842ZM56.3656 183.691V183.767V183.691ZM56.3656 183.691V137.013C56.3656 130.133 58.1127 125.072 60.6792 121.33M56.3656 183.691L60.6792 121.33M60.6792 121.33C63.2506 117.582 66.6879 115.096 70.1595 113.446M60.6792 121.33L70.1595 113.446M70.1595 113.446C73.6349 111.795 77.1234 110.993 79.7522 110.605M70.1595 113.446L79.7522 110.605M79.7522 110.605C81.0641 110.411 82.1552 110.321 82.9146 110.28M79.7522 110.605L82.9146 110.28M82.9146 110.28C83.2941 110.26 83.5903 110.252 83.7891 110.248M82.9146 110.28L83.7891 110.248M83.7891 110.248C83.8885 110.247 83.9635 110.246 84.0124 110.246M83.7891 110.248L84.0124 110.246M84.0124 110.246L84.0659 110.246M84.0124 110.246L84.0659 110.246M84.0659 110.246L84.0776 110.247M84.0659 110.246L84.0776 110.247M125.617 186.341C125.617 192.022 130.211 196.616 135.893 196.616C141.574 196.616 146.168 192.022 146.168 186.341C146.168 180.659 141.574 176.065 135.893 176.065C130.211 176.065 125.617 180.659 125.617 186.341Z" stroke="#DDDDDD" stroke-width="2"/>
</svg>
