<svg width="512" height="225" viewBox="0 0 512 225" fill="none" xmlns="http://www.w3.org/2000/svg">
<mask id="path-1-inside-1_530_7152" fill="white">
<path fill-rule="evenodd" clip-rule="evenodd" d="M413.387 4.94283H343.019L343.254 170.461L281.98 4.88016H221.223L168.917 143.162C163.355 107.975 126.981 95.833 98.3605 86.7385C79.4604 80.6677 59.4011 71.7377 59.6048 61.8677C59.7614 53.768 70.3354 46.2558 91.3503 47.376C105.449 48.1358 117.903 49.2717 142.677 61.241L167.037 18.7843C144.447 7.285 113.211 0.0235 87.5985 0H87.4418C57.5761 0 32.7076 9.67416 17.2931 25.615C6.54677 36.7383 0.750643 50.8853 0.515665 66.5285C0.124035 88.0545 8.01146 103.314 24.5852 115.51C38.5899 125.772 56.5031 132.43 72.2858 137.318C91.7498 143.35 107.65 148.598 107.454 159.769C107.297 163.842 105.762 167.649 102.833 170.72C97.9767 175.733 90.5357 177.613 80.2358 177.817C60.3645 178.24 45.6393 175.114 22.1728 161.241L0.5 204.246C23.943 217.579 48.8271 224.268 77.1028 224.268L83.4629 224.221C108.073 223.775 128.046 217.876 143.915 205.108C144.823 204.379 145.638 203.643 146.484 202.899L143.821 216.623L203.192 216.435L213.844 189.159C225.045 192.982 237.781 195.097 251.3 195.097C264.474 195.097 276.865 193.092 287.854 189.488L295.28 216.435L401.803 216.537L402.062 154.356H424.729C479.518 154.356 511.906 126.469 511.906 79.7042C511.888 27.6203 480.403 4.93501 413.388 4.93501L413.387 4.94283ZM251.3 146.428C243.115 146.428 235.439 145.003 228.836 142.496L251.049 72.3487H251.48L273.333 142.692C266.753 145.042 259.258 146.428 251.292 146.428H251.3ZM417.507 106.126H402.046V49.5928H417.515C438.115 49.5928 454.563 56.4548 454.563 77.4952C454.546 99.2718 438.115 106.126 417.515 106.126"/>
</mask>
<path d="M413.387 4.94283V6.94283H415.349L415.387 4.98152L413.387 4.94283ZM343.019 4.94283V2.94283H341.016L341.019 4.94567L343.019 4.94283ZM343.254 170.461L341.379 171.155L345.254 170.458L343.254 170.461ZM281.98 4.88016L283.856 4.18605L283.372 2.88016H281.98V4.88016ZM221.223 4.88016V2.88016H219.841L219.352 4.17258L221.223 4.88016ZM168.917 143.162L166.941 143.474L168.119 150.925L170.787 143.87L168.917 143.162ZM98.3605 86.7385L97.7488 88.6427L97.7548 88.6446L98.3605 86.7385ZM59.6048 61.8677L61.6044 61.9089L61.6044 61.9063L59.6048 61.8677ZM91.3503 47.376L91.4579 45.3789L91.4567 45.3788L91.3503 47.376ZM142.677 61.241L141.807 63.0418L143.485 63.8523L144.412 62.2363L142.677 61.241ZM167.037 18.7843L168.771 19.7796L169.818 17.9559L167.944 17.002L167.037 18.7843ZM87.5985 0L87.6003 -2H87.5985V0ZM17.2931 25.615L15.8553 24.2247L15.8547 24.2254L17.2931 25.615ZM0.515665 66.5285L2.51534 66.5649L2.51544 66.5585L0.515665 66.5285ZM24.5852 115.51L23.3998 117.121L23.4031 117.124L24.5852 115.51ZM72.2858 137.318L72.8778 135.408L72.8774 135.408L72.2858 137.318ZM107.454 159.769L109.453 159.846L109.453 159.825L109.454 159.804L107.454 159.769ZM102.833 170.72L104.269 172.111L104.275 172.106L104.28 172.1L102.833 170.72ZM80.2358 177.817L80.1963 175.817L80.1933 175.817L80.2358 177.817ZM22.1728 161.241L23.1906 159.52L21.3494 158.431L20.3868 160.341L22.1728 161.241ZM0.5 204.246L-1.28602 203.346L-2.14194 205.045L-0.488718 205.985L0.5 204.246ZM77.1028 224.268V226.268H77.1102L77.1176 226.268L77.1028 224.268ZM83.4629 224.221L83.4777 226.221L83.4884 226.221L83.4992 226.221L83.4629 224.221ZM143.915 205.108L142.664 203.548L142.661 203.55L143.915 205.108ZM146.484 202.899L148.447 203.28L149.564 197.526L145.163 201.397L146.484 202.899ZM143.821 216.623L141.857 216.242L141.394 218.631L143.827 218.623L143.821 216.623ZM203.192 216.435L203.198 218.435L204.56 218.431L205.055 217.163L203.192 216.435ZM213.844 189.159L214.49 187.267L212.678 186.648L211.981 188.432L213.844 189.159ZM287.854 189.488L289.783 188.957L289.225 186.934L287.231 187.588L287.854 189.488ZM295.28 216.435L293.352 216.966L293.756 218.434L295.278 218.435L295.28 216.435ZM401.803 216.537L401.801 218.537L403.795 218.539L403.803 216.545L401.803 216.537ZM402.062 154.356V152.356H400.07L400.062 154.348L402.062 154.356ZM511.906 79.7042H513.906V79.7035L511.906 79.7042ZM413.388 4.93501V2.93501H411.426L411.388 4.89632L413.388 4.93501ZM228.836 142.496L226.929 141.892L226.358 143.695L228.126 144.366L228.836 142.496ZM251.049 72.3487V70.3487H249.584L249.142 71.7449L251.049 72.3487ZM251.48 72.3487L253.39 71.7553L252.953 70.3487H251.48V72.3487ZM273.333 142.692L274.005 144.575L275.812 143.93L275.243 142.099L273.333 142.692ZM402.046 106.126H400.046V108.126H402.046V106.126ZM402.046 49.5928V47.5928H400.046V49.5928H402.046ZM454.563 77.4952L456.563 77.4968V77.4952H454.563ZM413.387 2.94283H343.019V6.94283H413.387V2.94283ZM341.019 4.94567L341.254 170.464L345.254 170.458L345.019 4.93999L341.019 4.94567ZM345.13 169.767L283.856 4.18605L280.104 5.57428L341.379 171.155L345.13 169.767ZM281.98 2.88016H221.223V6.88016H281.98V2.88016ZM219.352 4.17258L167.046 142.454L170.787 143.87L223.093 5.58775L219.352 4.17258ZM170.892 142.85C167.996 124.527 157.051 112.257 143.365 103.482C129.743 94.7468 113.243 89.369 98.9662 84.8324L97.7548 88.6446C112.099 93.2025 128.096 98.4427 141.206 106.849C154.253 115.215 164.276 126.61 166.941 143.474L170.892 142.85ZM98.9721 84.8343C89.5692 81.814 79.9857 78.1145 72.8153 73.9937C69.2256 71.9307 66.3388 69.8171 64.3844 67.7054C62.4235 65.5867 61.5683 63.6576 61.6044 61.9089L57.6052 61.8264C57.5395 65.0128 59.1153 67.9012 61.4488 70.4224C63.7889 72.9508 67.06 75.2997 70.8222 77.4618C78.3556 81.7912 88.2517 85.5921 97.7488 88.6427L98.9721 84.8343ZM61.6044 61.9063C61.6642 58.8155 63.7083 55.471 68.5783 52.9389C73.4516 50.405 80.9612 48.8251 91.2438 49.3732L91.4567 45.3788C80.7245 44.8068 72.4397 46.4228 66.7331 49.3899C61.0232 52.3587 57.702 56.8201 57.6052 61.829L61.6044 61.9063ZM91.2427 49.3731C105.137 50.1219 117.32 51.2113 141.807 63.0418L143.547 59.4402C118.486 47.332 105.761 46.1498 91.4579 45.3789L91.2427 49.3731ZM144.412 62.2363L168.771 19.7796L165.302 17.789L140.943 60.2457L144.412 62.2363ZM167.944 17.002C145.063 5.35399 113.514 -1.97622 87.6003 -2L87.5966 2C112.908 2.02322 143.832 9.216 166.129 20.5667L167.944 17.002ZM87.5985 -2H87.4418V2H87.5985V-2ZM87.4418 -2C57.1728 -2 31.7334 7.80461 15.8553 24.2247L18.7308 27.0053C33.6819 11.5437 57.9795 2 87.4418 2V-2ZM15.8547 24.2254C4.75035 35.7193 -1.24161 50.3545 -1.48411 66.4985L2.51544 66.5585C2.74289 51.4162 8.34318 37.7574 18.7315 27.0046L15.8547 24.2254ZM-1.484 66.4921C-1.68455 77.5149 0.234861 87.0404 4.39775 95.4087C8.56037 103.777 14.9091 110.873 23.3998 117.121L25.7706 113.899C17.6876 107.951 11.8057 101.32 7.9791 93.6272C4.15274 85.9353 2.32425 77.0681 2.51533 66.5649L-1.484 66.4921ZM23.4031 117.124C37.6899 127.592 55.8717 134.328 71.6941 139.229L72.8774 135.408C57.1345 130.532 39.4899 123.952 25.7673 113.897L23.4031 117.124ZM71.6937 139.229C81.4784 142.261 90.1133 145.025 96.2888 148.375C102.505 151.746 105.532 155.322 105.454 159.734L109.454 159.804C109.572 153.045 104.747 148.412 98.1959 144.858C91.6043 141.283 82.5571 138.407 72.8778 135.408L71.6937 139.229ZM105.456 159.692C105.317 163.292 103.969 166.631 101.386 169.339L104.28 172.1C107.556 168.667 109.278 164.392 109.453 159.846L105.456 159.692ZM101.396 169.328C97.1127 173.75 90.3645 175.616 80.1963 175.817L80.2754 179.816C90.7069 179.61 98.8406 177.716 104.269 172.111L101.396 169.328ZM80.1933 175.817C70.3824 176.026 61.9351 175.357 53.075 172.959C44.2034 170.558 34.8248 166.398 23.1906 159.52L21.155 162.963C32.9873 169.958 42.7046 174.296 52.03 176.82C61.367 179.348 70.218 180.03 80.2784 179.816L80.1933 175.817ZM20.3868 160.341L-1.28602 203.346L2.28602 205.146L23.9588 162.141L20.3868 160.341ZM-0.488718 205.985C23.2584 219.49 48.4837 226.268 77.1028 226.268V222.268C49.1705 222.268 24.6275 215.667 1.48872 202.508L-0.488718 205.985ZM77.1176 226.268L83.4777 226.221L83.4481 222.221L77.088 222.268L77.1176 226.268ZM83.4992 226.221C108.413 225.769 128.859 219.789 145.169 206.666L142.661 203.55C127.233 215.964 107.732 221.781 83.4266 222.222L83.4992 226.221ZM145.166 206.668C146.121 205.903 146.985 205.122 147.805 204.401L145.163 201.397C144.291 202.164 143.526 202.856 142.664 203.548L145.166 206.668ZM144.521 202.518L141.857 216.242L145.784 217.004L148.447 203.28L144.521 202.518ZM143.827 218.623L203.198 218.435L203.186 214.435L143.815 214.623L143.827 218.623ZM205.055 217.163L215.707 189.887L211.981 188.432L201.329 215.707L205.055 217.163ZM213.198 191.052C224.62 194.95 237.576 197.097 251.3 197.097V193.097C237.986 193.097 225.469 191.014 214.49 187.267L213.198 191.052ZM251.3 197.097C264.675 197.097 277.277 195.061 288.478 191.389L287.231 187.588C276.454 191.122 264.274 193.097 251.3 193.097V197.097ZM285.926 190.02L293.352 216.966L297.208 215.904L289.783 188.957L285.926 190.02ZM295.278 218.435L401.801 218.537L401.805 214.537L295.282 214.435L295.278 218.435ZM403.803 216.545L404.062 154.364L400.062 154.348L399.803 216.529L403.803 216.545ZM402.062 156.356H424.729V152.356H402.062V156.356ZM424.729 156.356C452.441 156.356 474.752 149.304 490.165 136.085C505.619 122.832 513.906 103.578 513.906 79.7042H509.906C509.906 102.595 501.999 120.667 487.561 133.049C473.084 145.465 451.806 152.356 424.729 152.356V156.356ZM513.906 79.7035C513.897 53.2332 505.866 33.8534 488.971 21.1879C472.202 8.61756 447.047 2.93501 413.388 2.93501V6.93501C446.744 6.93501 470.839 12.5951 486.571 24.3884C502.177 36.0865 509.897 54.0914 509.906 79.7049L513.906 79.7035ZM411.388 4.89632L411.388 4.90414L415.387 4.98152L415.387 4.97371L411.388 4.89632ZM251.3 144.428C243.342 144.428 235.908 143.042 229.546 140.626L228.126 144.366C234.969 146.964 242.887 148.428 251.3 148.428V144.428ZM230.742 143.1L252.956 72.9524L249.142 71.7449L226.929 141.892L230.742 143.1ZM251.049 74.3487H251.48V70.3487H251.049V74.3487ZM249.57 72.942L271.423 143.285L275.243 142.099L253.39 71.7553L249.57 72.942ZM272.66 140.809C266.296 143.082 259.028 144.428 251.292 144.428V148.428C259.487 148.428 267.211 147.002 274.005 144.575L272.66 140.809ZM251.292 148.428H251.3V144.428H251.292V148.428ZM417.507 104.126H402.046V108.126H417.507V104.126ZM404.046 106.126V49.5928H400.046V106.126H404.046ZM402.046 51.5928H417.515V47.5928H402.046V51.5928ZM417.515 51.5928C427.654 51.5928 436.46 53.2925 442.674 57.3309C448.744 61.2754 452.563 67.591 452.563 77.4952H456.563C456.563 66.359 452.158 58.7234 444.854 53.9769C437.694 49.3241 427.976 47.5928 417.515 47.5928V51.5928ZM452.563 77.4935C452.555 87.7946 448.713 94.2883 442.652 98.3103C436.447 102.427 427.656 104.126 417.515 104.126V108.126C427.974 108.126 437.698 106.397 444.863 101.643C452.171 96.7941 456.554 88.9723 456.563 77.4968L452.563 77.4935Z" fill="#DDDDDD" mask="url(#path-1-inside-1_530_7152)"/>
</svg>
