<svg width="212px" height="211px" viewBox="0 0 1282 1293" fill="none" xmlns="http://www.w3.org/2000/svg">
<path d="M337.935 143.461L337.925 143.392L337.925 143.392L337.925 143.389L337.923 143.374C337.921 143.36 337.918 143.337 337.914 143.305C337.906 143.242 337.894 143.146 337.881 143.016C337.853 142.757 337.816 142.367 337.782 141.855C337.713 140.831 337.653 139.319 337.693 137.387C337.773 133.525 338.252 127.99 339.85 121.341C343.045 108.049 350.72 90.2772 368.683 72.4774C404.619 36.8665 481.888 1.00001 647.3 1C820.136 1 899.587 44.2304 935.877 87.1719C954.027 108.648 961.433 130.11 964.307 146.189C965.745 154.231 966.049 160.927 965.994 165.605C965.967 167.944 965.85 169.778 965.741 171.022C965.686 171.644 965.633 172.118 965.595 172.435C965.575 172.593 965.56 172.712 965.549 172.79C965.543 172.829 965.539 172.858 965.537 172.876L965.534 172.896L965.533 172.9C965.533 172.9 965.533 172.9 965.534 172.9L965.533 172.9L965.521 172.976V173.053V459.014C965.521 502.072 954.568 534.12 938.192 557.988C921.81 581.864 899.96 597.62 878.076 608.016C856.187 618.415 834.286 623.442 817.847 625.868C809.631 627.081 802.785 627.643 797.998 627.901C795.605 628.03 793.726 628.084 792.449 628.105C791.81 628.116 791.321 628.118 790.994 628.118C790.83 628.118 790.706 628.117 790.624 628.117L790.533 628.116L790.51 628.115L790.505 628.115C790.505 628.115 790.504 628.115 790.488 629.115L790.504 628.115L790.496 628.115H790.488H477.171C430.029 628.115 394.972 639.714 368.923 657.169C342.878 674.62 325.901 697.883 314.843 721.115C303.786 744.343 298.637 767.557 296.249 784.955C295.055 793.656 294.551 800.91 294.346 805.992C294.243 808.533 294.215 810.532 294.213 811.898C294.212 812.581 294.217 813.105 294.222 813.461C294.225 813.639 294.228 813.774 294.23 813.866L294.233 813.97L294.234 813.975V813.99V967.948H184.89H184.858L184.826 967.95L184.831 968.021C184.826 967.95 184.826 967.95 184.826 967.95L184.821 967.95L184.8 967.952C184.78 967.953 184.748 967.955 184.706 967.957C184.622 967.961 184.495 967.966 184.325 967.972C183.985 967.984 183.476 967.997 182.81 968C181.477 968.005 179.514 967.969 177.01 967.807C172.003 967.481 164.837 966.647 156.232 964.607C139.023 960.529 116.06 951.634 93.0878 932.358C47.1693 893.828 0.999988 813.632 1 646.826C1 480.063 53.8748 402.945 106.474 367.446C132.802 349.677 159.131 342.285 178.879 339.335C188.753 337.86 196.977 337.497 202.727 337.501C205.602 337.503 207.858 337.598 209.39 337.691C210.157 337.738 210.743 337.784 211.135 337.818C211.331 337.836 211.479 337.85 211.576 337.86C211.607 337.863 211.632 337.866 211.653 337.868L211.685 337.871L211.711 337.874L211.717 337.875C211.717 337.875 211.717 337.875 211.722 337.836L211.717 337.875L211.774 337.881H211.83H653.205H654.205V336.881V292.234V291.234H653.205H338.302L337.935 143.532L337.935 143.461ZM530.944 156.818C530.944 124.84 505.094 98.9942 473.112 98.9943C441.13 98.9943 415.279 124.84 415.279 156.818C415.279 188.795 441.13 214.641 473.112 214.641C505.094 214.641 530.944 188.795 530.944 156.818Z" stroke="#DDDDDD" stroke-width="10"/>
<path d="M944.065 1149.47L944.065 1149.54L944.075 1149.61L944.075 1149.61L944.077 1149.63C944.079 1149.64 944.082 1149.66 944.086 1149.69C944.094 1149.76 944.106 1149.85 944.119 1149.98C944.147 1150.24 944.184 1150.63 944.218 1151.14C944.287 1152.17 944.346 1153.68 944.306 1155.61C944.226 1159.47 943.748 1165.01 942.15 1171.66C938.955 1184.95 931.28 1202.72 913.317 1220.52C877.381 1256.13 800.112 1292 634.7 1292C461.864 1292 382.413 1248.77 346.123 1205.83C327.973 1184.35 320.566 1162.89 317.693 1146.81C316.255 1138.77 315.951 1132.07 316.006 1127.39C316.033 1125.06 316.15 1123.22 316.259 1121.98C316.314 1121.36 316.367 1120.88 316.405 1120.56C316.425 1120.41 316.44 1120.29 316.451 1120.21C316.457 1120.17 316.461 1120.14 316.463 1120.12L316.466 1120.1L316.467 1120.1L316.479 1120.02V1119.95V833.986C316.479 790.928 327.432 758.881 343.808 735.012C360.19 711.136 382.04 695.38 403.924 684.984C425.813 674.585 447.714 669.558 464.153 667.132C472.369 665.919 479.215 665.357 484.002 665.099C486.395 664.97 488.274 664.916 489.551 664.895C490.19 664.884 490.679 664.882 491.006 664.882C491.17 664.882 491.294 664.883 491.376 664.883L491.467 664.884L491.49 664.885L491.495 664.885C491.495 664.885 491.496 664.885 491.512 663.885L491.496 664.885L491.504 664.885H491.512H804.829C851.971 664.885 887.028 653.286 913.077 635.831C939.122 618.379 956.099 595.117 967.157 571.884C978.214 548.657 983.363 525.443 985.751 508.045C986.945 499.343 987.449 492.09 987.654 487.008C987.757 484.467 987.785 482.468 987.787 481.102C987.788 480.419 987.783 479.894 987.778 479.539L987.775 479.374C987.773 479.275 987.771 479.195 987.77 479.134L987.767 479.03L987.766 479.025V325.052H1097.11H1097.14L1097.17 325.05L1097.14 324.539C1097.17 325.05 1097.17 325.05 1097.17 325.05L1097.18 325.05L1097.2 325.048L1097.24 325.046L1097.29 325.043C1097.38 325.039 1097.51 325.033 1097.68 325.028C1098.01 325.016 1098.52 325.003 1099.19 325C1100.52 324.995 1102.49 325.031 1104.99 325.193C1110 325.519 1117.16 326.353 1125.77 328.393C1142.98 332.471 1165.94 341.366 1188.91 360.642C1234.83 399.172 1281 479.368 1281 646.174C1281 812.937 1228.13 890.055 1175.53 925.554C1149.2 943.323 1122.87 950.715 1103.12 953.665C1093.25 955.14 1085.02 955.503 1079.27 955.499C1076.4 955.497 1074.14 955.402 1072.61 955.309C1072.21 955.285 1071.87 955.261 1071.57 955.239C1071.29 955.218 1071.06 955.198 1070.87 955.182C1070.67 955.164 1070.52 955.15 1070.42 955.14C1070.37 955.135 1070.34 955.131 1070.32 955.129L1070.29 955.126L1070.28 955.125C1070.28 955.125 1070.28 955.125 1070.17 956.119L1070.28 955.125L1070.23 955.119H1070.17H628.795H627.795V956.119V1000.77V1001.77H628.795H943.698L944.065 1149.47ZM751.056 1136.18C751.056 1168.16 776.906 1194.01 808.888 1194.01C840.87 1194.01 866.721 1168.16 866.721 1136.18C866.721 1104.21 840.87 1078.36 808.888 1078.36C776.906 1078.36 751.056 1104.21 751.056 1136.18Z" stroke="#DDDDDD" stroke-width="10"/>
</svg>